<?xml version="1.0" encoding="UTF-8"?>
<svg xmlns="http://www.w3.org/2000/svg" width="512" height="512" viewBox="0 0 512 512" fill="none"><path d="M160.027 504.938C139.234 504.938 122.379 489.071 122.379 469.496V464.833C122.379 445.258 139.234 429.391 160.027 429.391C180.82 429.391 197.676 445.258 197.676 464.833V469.496C197.676 489.071 180.82 504.938 160.027 504.938Z" fill="#F5F5F5"/><path d="M176.539 124.917C166.148 134.562 159.805 147.003 158.266 160.462L158.254 182.228C158.25 187.428 153.773 191.639 148.254 191.639H92.7617C87.2383 191.639 82.7617 187.424 82.7617 182.225V160.462C84.4336 127.869 98.8086 97.5275 123.668 74.4483C149.684 50.2954 183.992 37.0605 220.469 37.0605C221.121 37.0605 221.77 37.0677 222.426 37.075L222.449 37.0753C258.422 37.546 292.328 51.075 317.922 75.1691C337.089 93.2136 349.963 115.647 355.429 140L357.443 161.114L357.458 182.228C353.917 210.779 340.492 237.23 318.691 258.041C292.566 282.974 257.695 296.708 220.496 296.708L219.469 296.701H219.32C213.562 296.701 208.09 298.794 203.977 302.607C199.828 306.45 197.672 311.808 197.672 317.283V385.447C197.672 390.647 193.195 394.861 187.672 394.861H132.379C126.855 394.861 122.379 390.647 122.379 385.447V316.772C122.379 292.413 132.488 269.547 150.844 252.381C169.176 235.238 193.496 225.82 219.398 225.82H220.066L220.496 225.824C237.387 225.824 253.219 219.587 265.078 208.264C276.938 196.949 283.336 181.949 283.102 166.033C282.633 134.445 254.953 108.39 221.402 107.949C221.105 107.945 220.801 107.945 220.504 107.945C203.93 107.945 188.352 113.951 176.539 124.917Z" fill="#F5F5F5"/><path fill-rule="evenodd" clip-rule="evenodd" d="M348.331 216.579C327.947 264.609 285.44 296.426 231.5 295.661C224.392 295.56 217.206 294.963 210 293.85L221.87 293.605L221.746 293.579C223.848 293.601 225.933 293.567 228 293.479C240.482 292.942 223.109 295.398 233.834 291.1C282.5 276.5 316.835 247.139 331.743 212.01C358.398 149.205 330.194 75.1113 262.834 41.3941C266.055 42.5293 269.264 43.7728 272.457 45.128C346.091 76.3786 376.193 150.927 348.331 216.579Z" fill="#111111" fill-opacity="0.49"/><path fill-rule="evenodd" clip-rule="evenodd" d="M160.027 512C180.061 512 197.087 499.651 202.974 482.617C204.011 479.615 204.362 476.433 204.561 473.263L205.148 463.922C204.633 440.909 184.598 422.331 160.027 422.331C146.488 422.331 134.319 427.973 126.039 436.891C123.57 439.549 121.797 442.75 120.221 446.017L118.787 448.99C117.182 452.316 115.746 455.761 115.246 459.42C115.004 461.193 114.879 463 114.879 464.834V469.497C114.879 492.933 135.133 512 160.027 512ZM75.2695 160.124C75.8125 149.588 77.6367 139.255 80.6523 129.289L92.418 102.021C99.2344 90.1176 107.953 79.1223 118.402 69.4177C145.785 43.9997 182.031 30 220.473 30C221.168 30 221.863 30.0037 222.562 30.0147C260.492 30.5112 296.246 44.772 323.23 70.1752C333.352 79.7041 341.805 90.3933 348.451 101.92C348.46 101.936 348.473 101.949 348.488 101.959V101.959V101.959C348.504 101.968 348.516 101.982 348.523 101.999L356.442 120.292C358.346 124.691 355.38 129.661 350.606 130.075V130.075C347.363 130.356 344.374 128.363 343.208 125.324C336.773 108.552 326.422 93.154 312.621 80.1593C288.418 57.3743 256.355 44.5808 222.348 44.1358C221.715 44.1248 221.094 44.1211 220.473 44.1211C186 44.1211 153.492 56.6756 128.938 79.4716C105.613 101.131 91.8828 129.947 90.2617 160.635V182.225C90.2617 183.523 91.3867 184.578 92.7617 184.578H148.258C149.637 184.578 150.758 183.523 150.758 182.225L150.77 160.458C150.77 160.208 150.785 159.958 150.812 159.708C152.551 144.473 159.629 130.705 171.277 119.89C184.477 107.633 201.961 100.885 220.508 100.885L221.48 100.889C231.957 101.028 242.027 103.338 251.445 107.758C255.152 109.497 256.656 113.737 254.809 117.227C252.961 120.717 248.453 122.133 244.75 120.393C237.367 116.929 229.477 115.116 221.301 115.01L220.504 115.006C205.926 115.006 192.184 120.309 181.809 129.94C172.746 138.357 167.203 149.04 165.77 160.852L165.758 182.232C165.75 191.311 157.902 198.699 148.258 198.699H92.7617C83.1133 198.699 75.2617 191.308 75.2617 182.225V160.462C75.2617 160.348 75.2656 160.234 75.2695 160.124ZM358.404 165.049C354.256 165.103 350.965 168.517 350.764 172.66C349.288 202.976 336.171 231.298 313.352 253.08C288.648 276.663 255.676 289.648 220.543 289.648L219.32 289.641C211.555 289.641 204.238 292.457 198.715 297.576C193.289 302.607 190.176 309.789 190.176 317.287V385.447C190.176 386.745 189.051 387.801 187.676 387.801H132.379C131 387.801 129.879 386.745 129.879 385.447V316.772C129.879 294.311 139.203 273.221 156.129 257.394C173.031 241.588 195.5 232.88 219.398 232.88L220.5 232.884C239.41 232.884 257.141 225.904 270.418 213.225C283.695 200.553 290.863 183.758 290.598 165.938C290.414 153.372 286.355 141.137 278.863 130.554C276.563 127.311 271.906 126.435 268.461 128.598C265.016 130.76 264.086 135.143 266.383 138.387C272.27 146.701 275.457 156.296 275.602 166.132C275.809 180.147 270.176 193.349 259.742 203.311C249.301 213.276 235.363 218.763 220.535 218.763L219.402 218.759C191.516 218.759 165.289 228.924 145.559 247.373C125.773 265.877 114.879 290.523 114.879 316.776V385.447C114.879 394.534 122.73 401.922 132.379 401.922H187.676C197.324 401.922 205.176 394.534 205.176 385.447V317.287C205.176 313.551 206.656 310.035 209.238 307.641C211.938 305.141 215.516 303.765 219.32 303.765L220.5 303.769C259.719 303.769 296.488 289.291 324.031 262.998C349.702 238.496 364.358 206.577 365.789 172.439C365.963 168.305 362.541 164.996 358.404 165.049V165.049ZM190.176 469.497C190.176 485.148 176.648 497.879 160.027 497.879C143.402 497.879 129.879 485.148 129.879 469.497V464.834C129.879 449.187 143.402 436.456 160.027 436.456C176.648 436.456 190.176 449.187 190.176 464.834V469.497Z" fill="black"/></svg>
