<svg height="512" viewBox="0 0 64 64" width="512" xmlns="http://www.w3.org/2000/svg"><g id="add_user_social_media_interaction_communication_web" data-name="add user social media interaction communication web"><path d="m38.924 30.243a14.5 14.5 0 1 0 -13.848 0c-12.676 2.157-22.076 10.079-22.076 19.531h17.774a11.226 11.226 0 0 1 22.452 0h17.774c0-9.452-9.4-17.374-22.076-19.531z" fill="#4370ff"/><path d="m30 56.774h4v-5h5v-4h-5v-5h-4v5h-5v4h5z"/><path d="m43.588 29.248a16.5 16.5 0 1 0 -23.176 0c-11.625 3.304-19.412 11.339-19.412 20.526a2 2 0 0 0 2 2h15.942a13.174 13.174 0 1 0 -.016-4h-13.762c1.225-7.436 9.206-13.684 20.247-15.56a2 2 0 0 0 .621-3.728 12.5 12.5 0 1 1 11.936 0 2 2 0 0 0 .621 3.728c11.041 1.876 19.022 8.124 20.247 15.56h-9.726a16 16 0 0 1 0 4h11.89a2 2 0 0 0 2-2c0-9.187-7.787-17.222-19.412-20.526zm-11.588 11.3a9.226 9.226 0 1 1 -9.226 9.226 9.237 9.237 0 0 1 9.226-9.226z"/></g></svg>