<svg width="488" height="477" viewBox="0 0 488 477" fill="none" xmlns="http://www.w3.org/2000/svg">
<path d="M413.18 238.5C413.18 348.095 322.287 436.939 210.164 436.939C98.0416 436.939 7.14844 348.095 7.14844 238.5C7.14844 128.905 98.0416 40.0605 210.164 40.0605C322.287 40.0605 413.18 128.905 413.18 238.5Z" fill="#8B0E12"/>
<path d="M413.18 238.5C413.18 348.099 322.29 436.939 210.164 436.939C205.302 436.939 200.48 436.772 195.703 436.445C301.083 429.188 384.251 343.346 384.251 238.5C384.251 133.654 301.083 47.8121 195.703 40.5555C200.48 40.228 205.302 40.0605 210.164 40.0605C322.29 40.0605 413.18 128.901 413.18 238.5Z" fill="#040404"/>
<path d="M152.526 470.012C132.708 470.012 116.642 454.309 116.642 434.937V430.323C116.642 410.951 132.708 395.248 152.526 395.248C172.344 395.248 188.41 410.951 188.41 430.323V434.937C188.41 454.309 172.344 470.012 152.526 470.012Z" fill="#F9F9F9"/>
<path d="M150.847 129.11C152.314 115.79 158.36 103.479 168.264 93.9329C179.523 83.0808 194.37 77.1379 210.168 77.1379C210.451 77.1379 210.741 77.1379 211.024 77.1415C243.002 77.5783 269.384 103.362 269.831 134.623C270.055 150.374 263.956 165.218 252.653 176.416C241.349 187.621 226.259 193.793 210.16 193.793L209.751 193.789C209.539 193.789 209.326 193.789 209.114 193.789C184.426 193.789 161.246 203.11 143.773 220.076C126.278 237.063 116.642 259.692 116.642 283.798V351.761C116.642 356.907 120.909 361.077 126.174 361.077H178.875C184.139 361.077 188.406 356.907 188.406 351.761V284.304C188.406 278.885 190.461 273.583 194.415 269.78C198.336 266.006 203.552 263.935 209.04 263.935H209.181L210.16 263.943C245.616 263.943 278.852 250.35 303.753 225.676C328.646 201.002 342.083 168.319 341.587 133.648C341.111 100.134 327.413 68.5457 303.019 44.7015C278.625 20.8574 246.308 7.46866 212.022 7.00284C211.389 6.99556 210.763 6.98828 210.134 6.98828C175.368 6.98828 142.667 20.0858 117.871 43.9882C94.1769 66.828 80.4758 96.8552 78.8823 129.11V150.647C78.8823 155.792 83.149 159.963 88.4135 159.963H141.305C146.565 159.963 150.832 155.796 150.836 150.65L150.847 129.11Z" fill="#F9F9F9"/>
<path d="M344.305 377.991C307.848 411.501 260.211 429.952 210.164 429.952C205.294 429.952 200.391 429.774 195.532 429.421C195.041 406.647 175.945 388.261 152.526 388.261C137.689 388.261 124.58 395.642 116.843 406.843C87.0546 391.034 61.8861 367.922 43.8847 339.732C24.5281 309.421 14.2969 274.415 14.2969 238.5C14.2969 185.058 37.3171 134.251 76.8718 98.259C73.9975 108.121 72.2588 118.347 71.7413 128.774C71.7375 128.883 71.7338 128.996 71.7338 129.109V150.646C71.7338 159.634 79.2173 166.949 88.4135 166.949H141.308C150.501 166.949 157.98 159.638 157.988 150.653L157.999 129.494C159.365 117.805 164.649 107.233 173.286 98.9031C183.175 89.372 196.273 84.1242 210.168 84.1242L210.927 84.1279C218.72 84.2334 226.241 86.0276 233.277 89.4557C236.807 91.177 241.103 89.7759 242.864 86.3223C244.625 82.8687 243.192 78.6727 239.659 76.9513C230.682 72.577 221.084 70.2916 211.099 70.1533L210.172 70.1496C192.494 70.1496 175.829 76.8276 163.249 88.9571C152.146 99.6601 145.4 113.285 143.743 128.363C143.717 128.61 143.702 128.858 143.702 129.105L143.691 150.646C143.691 151.93 142.622 152.975 141.308 152.975H88.4135C87.103 152.975 86.0307 151.93 86.0307 150.646V129.28C87.5758 98.9104 100.663 70.3935 122.894 48.9584C146.297 26.3989 177.281 13.9746 210.138 13.9746C210.73 13.9746 211.322 13.9782 211.925 13.9892C244.339 14.4295 274.898 27.0904 297.967 49.639C321.036 72.1912 333.988 102.058 334.443 133.745C334.908 166.531 322.201 197.439 298.663 220.766C275.118 244.104 243.691 256.954 210.205 256.954L209.04 256.947C201.638 256.947 194.665 259.735 189.4 264.801C184.229 269.779 181.261 276.887 181.261 284.307V351.76C181.261 353.044 180.189 354.089 178.878 354.089H126.174C124.859 354.089 123.791 353.044 123.791 351.76V283.797C123.791 261.569 132.678 240.698 148.81 225.035C164.92 209.394 186.336 200.776 209.114 200.776L210.164 200.779C228.188 200.779 245.087 193.872 257.742 181.324C270.397 168.783 277.229 152.163 276.976 134.527C276.801 122.092 272.933 109.985 265.792 99.5109C263.599 96.3011 259.161 95.4349 255.877 97.5748C252.593 99.7147 251.707 104.053 253.896 107.262C259.507 115.491 262.545 124.985 262.683 134.72C262.88 148.589 257.511 161.654 247.567 171.513C237.615 181.375 224.331 186.805 210.198 186.805L209.118 186.801C182.538 186.801 157.541 196.86 138.736 215.118C119.878 233.431 109.494 257.821 109.494 283.801V351.76C109.494 360.752 116.977 368.064 126.174 368.064H178.878C188.075 368.064 195.558 360.752 195.558 351.76V284.307C195.558 280.609 196.969 277.13 199.43 274.761C202.003 272.287 205.413 270.925 209.04 270.925L210.164 270.929C247.544 270.929 282.59 256.601 308.842 230.581C335.09 204.568 349.257 170.108 348.74 133.552C348.565 121.448 346.755 109.584 343.423 98.2044C378.696 130.208 400.867 173.842 405.22 221.119C405.555 224.751 408.671 227.48 412.331 227.48C412.547 227.48 412.763 227.47 412.979 227.451C416.91 227.106 419.814 223.71 419.461 219.867C413.976 160.304 382.162 106.127 332.175 71.2268C332.16 71.2159 332.145 71.2086 332.131 71.1977C325.794 59.7815 317.733 49.195 308.079 39.7585C282.36 14.6188 248.282 0.505852 212.13 0.0145569C211.463 0.00363922 210.801 0 210.138 0C173.499 0 138.951 13.8545 112.852 39.0088C102.893 48.6127 94.5828 59.494 88.0859 71.2741C61.5101 89.8415 39.4281 114.526 24.2042 142.705C8.36963 172.015 0 205.139 0 238.5C0 277.036 10.9796 314.6 31.7584 347.131C51.2491 377.653 78.5732 402.622 110.92 419.591C109.993 423.019 109.494 426.615 109.494 430.323V434.938C109.494 458.131 128.798 477 152.526 477C173.297 477 190.677 462.538 194.687 443.377C199.825 443.741 205.011 443.927 210.164 443.927C263.867 443.927 314.982 424.126 354.097 388.174C356.975 385.528 357.113 381.107 354.41 378.297C351.703 375.484 347.18 375.349 344.305 377.991V377.991ZM181.261 434.938C181.261 450.426 168.368 463.025 152.526 463.025C136.68 463.025 123.791 450.426 123.791 434.938V430.323C123.791 414.838 136.68 402.239 152.526 402.239C168.368 402.239 181.261 414.838 181.261 430.323V434.938Z" fill="black"/>
<path d="M413.224 243.944C409.274 243.697 405.894 246.637 405.648 250.488C403.205 289.151 389.005 325.732 364.585 356.276C362.158 359.318 362.709 363.711 365.818 366.084C367.124 367.085 368.677 367.565 370.215 367.565C372.341 367.565 374.444 366.644 375.851 364.883C402.059 332.101 417.294 292.841 419.919 251.35C420.161 247.496 417.163 244.184 413.224 243.944V243.944Z" fill="black"/>
<path d="M227.536 303.037H247.213C251.163 303.037 254.362 299.911 254.362 296.05C254.362 292.192 251.163 289.062 247.213 289.062H227.536C223.586 289.062 220.388 292.192 220.388 296.05C220.388 299.911 223.586 303.037 227.536 303.037V303.037Z" fill="black"/>
<path d="M295.208 314.828H227.536C223.586 314.828 220.388 317.958 220.388 321.815C220.388 325.677 223.586 328.803 227.536 328.803H295.208C299.155 328.803 302.357 325.677 302.357 321.815C302.357 317.958 299.155 314.828 295.208 314.828Z" fill="black"/>
<path d="M295.208 336.242H227.536C223.586 336.242 220.388 339.372 220.388 343.229C220.388 347.091 223.586 350.217 227.536 350.217H295.208C299.155 350.217 302.357 347.091 302.357 343.229C302.357 339.372 299.155 336.242 295.208 336.242Z" fill="black"/>
</svg>
