<svg height="512" viewBox="0 0 64 64" width="512" xmlns="http://www.w3.org/2000/svg"><g id="mobilephone_&#xB7;_ecommerce_&#xB7;_shopping_&#xB7;_buy_&#xB7;_cart" data-name="mobilephone &#xB7; ecommerce &#xB7; shopping &#xB7; buy &#xB7; cart"><path d="m3 9h34v39h-34z" fill="#ffdaaa"/><path d="m33 9v17a20 20 0 0 1 -20 20h-10v2h34v-39z" fill="#ffc477"/><path d="m33 13h28v24h-28z" fill="#ffcd00"/><path d="m57 13v14a8 8 0 0 1 -8 8h-16v2h28v-24z" fill="#ebbf00"/><path d="m53 20h-9.75l.75 6h7z" fill="#5eac24"/><path d="m27 55v6h20v-6h-2-16z" fill="#004fac"/><path d="m25 19 4 1v-4l-3.983-1h-2.017a3 3 0 0 1 -6 0h-2.025l-3.975 1v4l4-1v10h10z" fill="#ed1c24"/><path d="m33 3h-26a4 4 0 0 0 -4 4v2h34v-2a4 4 0 0 0 -4-4z" fill="#006df0"/><path d="m3 52a4 4 0 0 0 4 4h22a4 4 0 0 0 4-4v-4h-30z" fill="#006df0"/><path d="m45 35a2.006 2.006 0 0 0 -2 2v-2a2.015 2.015 0 0 0 -2-2 2.006 2.006 0 0 0 -2 2v-1a2.015 2.015 0 0 0 -2-2 2.006 2.006 0 0 0 -2 2v-7a2.012 2.012 0 0 0 -2.177-1.992 2.075 2.075 0 0 0 -1.823 2.104v9.888h-2a2.006 2.006 0 0 0 -2 2v9.183a6 6 0 0 0 1.008 3.329l.656.984a2 2 0 0 1 .336 1.11v1.394h16v-1.394a2 2 0 0 1 .336-1.11l.656-.984a6 6 0 0 0 1.008-3.329v-11.183a2.015 2.015 0 0 0 -2-2z" fill="#ffbcab"/><g fill="#231f20"><path d="m17 7h1a1 1 0 0 0 0-2h-1a1 1 0 0 0 0 2z"/><path d="m22 7h1a1 1 0 0 0 0-2h-1a1 1 0 0 0 0 2z"/><path d="m61 12h-23v-5a5 5 0 0 0 -5-5h-26a5 5 0 0 0 -5 5v45a5 5 0 0 0 5 5h19v4a1 1 0 0 0 1 1h20a1 1 0 0 0 1-1v-6a1 1 0 0 0 -1-1h-1v-.39a1.023 1.023 0 0 1 .17-.56l.65-.98a7 7 0 0 0 1.18-3.89v-10.18h13a1 1 0 0 0 1-1v-24a1 1 0 0 0 -1-1zm-57-5a3.009 3.009 0 0 1 3-3h26a3.009 3.009 0 0 1 3 3v1h-32zm0 3h32v2h-3a1 1 0 0 0 -1 1v11.19a3.123 3.123 0 0 0 -2 2.92v8.89h-1a3.009 3.009 0 0 0 -3 3v8h-22zm22 45h-19a3.009 3.009 0 0 1 -3-3v-3h22.06a7.007 7.007 0 0 0 1.12 3.07l.65.98a1.023 1.023 0 0 1 .17.56v.39h-1a1 1 0 0 0 -1 1zm20 5h-18v-4h18zm0-11.82a5.016 5.016 0 0 1 -.84 2.78l-.66.98a3 3 0 0 0 -.5 1.67v.39h-14v-.39a3 3 0 0 0 -.5-1.67l-.66-.98a5.016 5.016 0 0 1 -.84-2.78v-9.18a1 1 0 0 1 1-1h1v5a1 1 0 0 0 2 0v-15.89a1.092 1.092 0 0 1 .91-1.11.985.985 0 0 1 .8.31.928.928 0 0 1 .29.69v12a1 1 0 0 0 2 0v-5a1 1 0 0 1 1-1 .949.949 0 0 1 .71.31.928.928 0 0 1 .29.69v5a1 1 0 0 0 2 0v-4a1 1 0 0 1 1-1 .949.949 0 0 1 .71.31.928.928 0 0 1 .29.69v4a1 1 0 0 0 2 0v-2a1 1 0 0 1 1-1 .949.949 0 0 1 .71.31.928.928 0 0 1 .29.69zm14-12.18h-12.18a2.972 2.972 0 0 0 -.69-1.11 3.061 3.061 0 0 0 -3.23-.68 2.942 2.942 0 0 0 -.77-1.32 3.085 3.085 0 0 0 -3.6-.5 2.744 2.744 0 0 0 -.4-.5 3.066 3.066 0 0 0 -3.13-.72v-4.17a2.954 2.954 0 0 0 -.87-2.11 3.048 3.048 0 0 0 -1.13-.71v-10.18h26z"/><path d="m10 33h-1a1 1 0 0 0 0 2h1a1 1 0 0 0 0-2z"/><path d="m24 33h-10a1 1 0 0 0 0 2h10a1 1 0 0 0 0-2z"/><path d="m10 37h-1a1 1 0 0 0 0 2h1a1 1 0 0 0 0-2z"/><path d="m22 37h-8a1 1 0 0 0 0 2h8a1 1 0 0 0 0-2z"/><path d="m10 41h-1a1 1 0 0 0 0 2h1a1 1 0 0 0 0-2z"/><path d="m22 41h-8a1 1 0 0 0 0 2h8a1 1 0 0 0 0-2z"/><circle cx="45" cy="29" r="2"/><circle cx="50" cy="29" r="2"/><path d="m41 19h1.117l.139 1.111v.029l.748 5.984a1 1 0 0 0 .996.876h7a1 1 0 0 0 .949-.684l2-6a1 1 0 0 0 -.949-1.316h-8.867l-.141-1.124a1 1 0 0 0 -.992-.876h-2a1 1 0 0 0 0 2zm10.613 2-1.334 4h-5.4l-.5-4z"/><path d="m22 51h-4a1 1 0 0 0 0 2h4a1 1 0 0 0 0-2z"/><path d="m29.244 15.03-3.983-1a.992.992 0 0 0 -.243-.03h-2.018a1 1 0 0 0 -1 1 2 2 0 0 1 -4 0 1 1 0 0 0 -1-1h-2.025a1.006 1.006 0 0 0 -.244.03l-3.975 1a1 1 0 0 0 -.756.97v4a1 1 0 0 0 1.243.97l2.757-.689v8.719a1 1 0 0 0 1 1h10a1 1 0 0 0 1-1v-8.719l2.757.689a1 1 0 0 0 1.243-.97v-4a1 1 0 0 0 -.756-.97zm-1.244 3.689-2.757-.689a1.009 1.009 0 0 0 -.858.182 1 1 0 0 0 -.385.788v9h-8v-9a1 1 0 0 0 -1.243-.97l-2.757.689v-1.939l3.1-.78h1.027a4 4 0 0 0 7.748 0h1.02l3.105.78z"/></g></g></svg>