<svg width="552" height="570" viewBox="0 0 552 570" fill="none" xmlns="http://www.w3.org/2000/svg">
<path d="M542.964 561.815L413.125 464.991L427.544 506.496H81.3014C41.4756 506.496 9.17224 475.549 9.17224 437.347V77.7721C9.17224 39.5858 41.4756 8.62305 81.3014 8.62305H470.834C510.676 8.62305 542.964 39.5703 542.964 77.7721V561.815Z" fill="#8B0E12"/>
<path d="M542.963 569.719C541.167 569.719 539.403 569.163 537.943 568.052L429.501 487.203L435.339 503.996C436.173 506.404 435.756 509.059 434.216 511.112C432.66 513.18 430.19 514.399 427.544 514.399H81.3013C37.0005 514.399 0.959961 479.84 0.959961 437.348V77.7725C0.959961 35.2798 37.0005 0.720703 81.3013 0.720703H470.834C515.135 0.720703 551.176 35.2798 551.176 77.7725V561.816C551.176 564.841 549.395 567.573 546.572 568.901C545.433 569.456 544.198 569.719 542.963 569.719ZM413.124 457.089C414.889 457.089 416.669 457.645 418.145 458.741L534.751 545.702V77.7725C534.751 44.0006 506.073 16.5262 470.834 16.5262H81.3013C46.0628 16.5262 17.3843 44.0006 17.3843 77.7725V437.348C17.3843 471.119 46.0628 498.594 81.3013 498.594H416.14L405.329 467.492C404.19 464.189 405.425 460.562 408.377 458.54C409.788 457.583 411.456 457.089 413.124 457.089Z" fill="black"/>
<path d="M348.245 384.003C346.946 384.003 345.727 383.417 344.957 382.413L331.965 365.682C331.179 364.663 330.938 363.367 331.323 362.147C331.708 360.943 332.671 360.002 333.922 359.585C348.165 354.846 361.301 348.487 373.186 340.523C346.336 351.435 314.209 356.791 276.068 356.791C237.926 356.791 205.815 351.435 178.949 340.523C190.834 348.487 203.955 354.846 218.214 359.585C219.465 360.002 220.427 360.943 220.812 362.147C221.197 363.367 220.956 364.663 220.17 365.682L207.178 382.413C206.409 383.417 205.174 384.003 203.89 384.003C203.89 384.003 203.89 384.003 203.874 384.003C201.228 383.988 138.674 383.185 96.4103 336.649C95.7046 335.861 95.3517 334.843 95.4159 333.809C102.457 222.522 142.588 165.659 144.304 163.298C144.529 162.973 144.817 162.696 145.138 162.464C146.582 161.353 181.211 135.422 227.516 131.146C227.645 131.146 227.773 131.131 227.901 131.131C229.457 131.131 230.885 131.98 231.59 133.338L235.408 140.824C235.953 141.92 235.953 143.186 235.424 144.282C234.878 145.377 233.836 146.165 232.601 146.427C215.743 150.023 202.142 155.256 190.658 161.384C213.771 152.956 240.107 147.307 276.324 147.307C312.814 147.307 339.279 153.126 362.6 161.785C351.485 155.858 337.932 150.703 319.454 146.412C318.251 146.134 317.241 145.347 316.712 144.251C316.182 143.17 316.198 141.92 316.744 140.84L320.561 133.354C321.251 131.995 322.678 131.146 324.234 131.146C324.346 131.146 324.443 131.146 324.539 131.146C368.775 134.326 405.441 161.291 406.981 162.449C407.318 162.68 407.607 162.973 407.847 163.313C409.548 165.675 449.678 222.522 456.736 333.824C456.8 334.858 456.447 335.877 455.725 336.664C413.461 383.201 350.908 384.003 348.277 384.019C348.261 384.003 348.245 384.003 348.245 384.003Z" fill="white"/>
<path d="M324.234 135.067C367.733 138.2 404.463 165.551 404.463 165.551C404.463 165.551 445.572 222.584 452.63 334.056C411.104 379.79 348.245 380.052 348.245 380.052L335.253 363.32C357.42 355.958 382.714 342.761 404.463 318.806C378.479 337.59 339.343 352.84 276.068 352.84C212.792 352.84 173.656 337.59 147.672 318.806C169.422 342.761 194.716 355.958 216.882 363.32L203.89 380.052C203.89 380.052 141.032 379.79 99.506 334.056C106.563 222.584 147.672 165.551 147.672 165.551C147.672 165.551 182.269 139.281 227.901 135.067L231.719 142.553C195.967 150.162 174.506 164.872 155.724 181.063C188.06 165.15 220.379 151.243 276.324 151.243C332.27 151.243 364.06 165.15 396.411 181.063C377.613 164.872 359.681 151.675 320.417 142.553L324.234 135.067ZM227.901 127.164C227.645 127.164 227.372 127.179 227.116 127.21C179.639 131.594 144.08 158.219 142.588 159.346C141.946 159.84 141.385 160.411 140.936 161.044C139.187 163.452 98.4314 221.179 91.3099 333.562C91.1816 335.645 91.9033 337.683 93.3148 339.257C136.782 387.121 201.132 387.939 203.842 387.955C203.858 387.955 203.874 387.955 203.89 387.955C206.473 387.955 208.911 386.782 210.467 384.775L223.459 368.044C225.03 366.022 225.512 363.398 224.726 360.99C224.084 358.952 222.624 357.285 220.716 356.313C237.605 359.261 256.035 360.727 276.068 360.727C296.101 360.727 314.53 359.261 331.42 356.313C329.511 357.285 328.051 358.952 327.41 360.99C326.624 363.398 327.105 366.022 328.677 368.044L341.669 384.775C343.225 386.782 345.663 387.955 348.245 387.955C348.261 387.955 348.277 387.955 348.293 387.955C351.004 387.939 415.354 387.121 458.821 339.257C460.232 337.683 460.954 335.645 460.826 333.562C453.704 221.179 412.948 163.452 411.2 161.044C410.735 160.38 410.141 159.809 409.484 159.3C407.912 158.127 370.283 130.467 324.844 127.195C324.635 127.179 324.443 127.164 324.234 127.164C321.122 127.164 318.251 128.862 316.856 131.594L313.055 139.08C312.028 141.086 311.932 143.433 312.798 145.501C301.747 144.096 289.701 143.34 276.324 143.34C262.739 143.34 250.517 144.112 239.321 145.532C240.204 143.448 240.123 141.102 239.081 139.08L235.28 131.594C233.884 128.862 231.013 127.164 227.901 127.164Z" fill="black"/>
<path d="M358.19 269.414C358.19 289.047 345.326 304.976 329.447 304.976C313.568 304.976 300.704 289.047 300.704 269.414C300.704 249.781 313.568 233.852 329.447 233.852C345.326 233.852 358.19 249.781 358.19 269.414Z" fill="#8B0E12"/>
<path d="M329.447 237.803C343 237.803 354.083 251.973 354.083 269.414C354.083 286.856 343 301.025 329.447 301.025C315.894 301.025 304.81 286.856 304.81 269.414C304.81 251.973 315.894 237.803 329.447 237.803ZM329.447 229.9C311.338 229.9 296.598 247.62 296.598 269.414C296.598 291.208 311.338 308.928 329.447 308.928C347.555 308.928 362.296 291.208 362.296 269.414C362.296 247.62 347.555 229.9 329.447 229.9Z" fill="black"/>
<path d="M251.431 269.414C251.431 289.047 238.568 304.976 222.689 304.976C206.81 304.976 193.946 289.047 193.946 269.414C193.946 249.781 206.81 233.852 222.689 233.852C238.568 233.852 251.431 249.781 251.431 269.414Z" fill="#8B0E12"/>
<path d="M222.689 237.803C236.242 237.803 247.325 251.973 247.325 269.414C247.325 286.856 236.242 301.025 222.689 301.025C209.135 301.025 198.052 286.856 198.052 269.414C198.052 251.973 209.135 237.803 222.689 237.803ZM222.689 229.9C204.58 229.9 189.84 247.62 189.84 269.414C189.84 291.208 204.58 308.928 222.689 308.928C240.797 308.928 255.537 291.208 255.537 269.414C255.537 247.62 240.797 229.9 222.689 229.9Z" fill="black"/>
<path d="M506.009 224.406C503.747 224.406 501.903 222.631 501.903 220.455V177.067C501.903 174.89 503.747 173.115 506.009 173.115C508.27 173.115 510.115 174.89 510.115 177.067V220.455C510.115 222.631 508.27 224.406 506.009 224.406Z" fill="black"/>
<path d="M506.009 156.816C503.747 156.816 501.903 155.041 501.903 152.864V117.549C501.903 115.373 503.747 113.598 506.009 113.598C508.27 113.598 510.115 115.373 510.115 117.549V152.864C510.115 155.041 508.27 156.816 506.009 156.816Z" fill="black"/>
<path d="M88.487 474.885C62.8561 474.885 42.0209 454.835 42.0209 430.17V84.9497C42.0209 60.2845 62.8561 40.2344 88.487 40.2344H463.665C465.926 40.2344 467.771 42.0094 467.771 44.1857C467.771 46.3621 465.926 48.1371 463.665 48.1371H88.487C67.3952 48.1371 50.233 64.6526 50.233 84.9497V430.17C50.233 450.467 67.3952 466.983 88.487 466.983C90.7486 466.983 92.5931 468.758 92.5931 470.934C92.5931 473.11 90.7486 474.885 88.487 474.885Z" fill="black"/>
<path d="M173.945 474.885H114.968C112.706 474.885 110.862 473.11 110.862 470.934C110.862 468.757 112.706 466.982 114.968 466.982H173.945C176.206 466.982 178.051 468.757 178.051 470.934C178.051 473.11 176.206 474.885 173.945 474.885Z" fill="black"/>
<path d="M369.465 474.885H209.328C207.066 474.885 205.222 473.11 205.222 470.934C205.222 468.757 207.066 466.982 209.328 466.982H369.465C371.727 466.982 373.571 468.757 373.571 470.934C373.571 473.11 371.727 474.885 369.465 474.885Z" fill="black"/>
<path d="M490.403 465.733C489.2 465.733 488.029 465.239 487.211 464.266C485.783 462.584 486.04 460.099 487.804 458.71C496.754 451.702 501.903 441.283 501.903 430.17V252.744C501.903 250.553 503.747 248.793 506.009 248.793C508.271 248.793 510.115 250.553 510.115 252.744V430.17C510.115 443.676 503.876 456.317 492.985 464.853C492.231 465.439 491.317 465.733 490.403 465.733Z" fill="black"/>
</svg>
