<svg width="512" height="512" viewBox="0 0 512 512" fill="none" xmlns="http://www.w3.org/2000/svg">
<path d="M43.135 40.7324V400.965C43.135 419.051 57.797 433.713 75.883 433.713H380.211C384.554 433.713 388.719 435.438 391.789 438.509L454.888 501.608C460.046 506.766 468.864 503.113 468.864 495.819V40.7324C468.864 22.6464 454.202 7.98438 436.116 7.98438H75.884C57.797 7.98338 43.135 22.6454 43.135 40.7324V40.7324Z" fill="#8B0E12"/>
<path d="M413.115 261.793L377.094 135.722C374.094 125.222 366.081 116.861 355.69 113.501C340.682 108.648 325.19 104.876 309.3 102.282C299.351 100.656 290.305 108.422 290.305 118.503V130.791H223.251V118.503C223.251 108.422 214.205 100.656 204.256 102.282C188.366 104.876 172.874 108.648 157.866 113.501C147.476 116.861 139.462 125.222 136.462 135.722L100.442 261.793C96.248 276.474 102.789 291.973 116.094 299.465C127.682 305.99 143.558 313.697 163.171 320.302C170.489 322.766 178.596 319.835 182.569 313.215L195.891 291.012L256 301.416L317.937 291.463L330.987 313.214C334.96 319.834 343.067 322.764 350.385 320.301C369.998 313.696 385.874 305.99 397.462 299.464C410.767 291.973 417.309 276.474 413.115 261.793V261.793Z" fill="white"/>
<path fill-rule="evenodd" clip-rule="evenodd" d="M313.326 429.999H85.1469C63.5615 429.999 46 412.191 46 390.301V206.781H52.3481L66.3481 385.301C66.3481 398.608 77.0246 409.436 90.1479 409.436C103.271 409.436 313.327 424.436 313.327 424.436L313.326 429.999Z" fill="#060606" fill-opacity="0.4"/>
<path d="M158.212 314.9C160.865 303.386 155.279 291.39 144.552 286.436C138.913 283.832 133.433 281.043 128.148 278.064C124.694 276.121 123.011 272.203 124.058 268.542L160.08 142.465C160.832 139.833 162.835 137.713 165.44 136.87L223.251 130.792V118.504C223.251 108.423 214.207 100.658 204.258 102.282C188.368 104.876 172.876 108.648 157.867 113.501C147.477 116.861 139.463 125.222 136.463 135.722L100.443 261.793C96.249 276.474 102.79 291.973 116.095 299.465C126.499 305.324 140.532 312.097 157.451 318.208L158.212 314.9Z" fill="black" fill-opacity="0.15"/>
<path d="M460.661 512C456.461 512 452.344 510.357 449.242 507.254L386.144 444.156C384.56 442.571 382.452 441.699 380.212 441.699H75.884C53.424 441.699 35.151 423.427 35.151 400.966V40.733C35.151 18.272 53.423 0 75.884 0H436.117C458.577 0 476.85 18.272 476.85 40.733V495.82C476.85 502.385 472.931 508.249 466.866 510.762C464.854 511.595 462.747 512 460.661 512V512ZM75.884 15.969C62.229 15.969 51.12 27.078 51.12 40.733V400.966C51.12 414.62 62.229 425.73 75.884 425.73H380.212C386.718 425.73 392.835 428.263 397.436 432.864L460.535 495.963C460.666 496.094 460.635 496.047 460.636 496.047C460.683 496.047 460.826 495.988 460.876 495.933C460.874 495.928 460.881 495.89 460.881 495.82V40.733C460.881 27.079 449.772 15.969 436.117 15.969H75.884Z" fill="black"/>
<path d="M198.69 261.581C180.744 261.581 166.144 246.981 166.144 229.036C166.144 211.091 180.744 196.49 198.69 196.49C216.636 196.49 231.236 211.091 231.236 229.036C231.236 246.981 216.636 261.581 198.69 261.581ZM198.69 212.458C189.549 212.458 182.113 219.895 182.113 229.035C182.113 238.175 189.549 245.611 198.69 245.611C207.831 245.611 215.267 238.175 215.267 229.035C215.267 219.895 207.831 212.458 198.69 212.458Z" fill="black"/>
<path d="M305.123 261.581C287.177 261.581 272.577 246.981 272.577 229.036C272.577 211.091 287.177 196.49 305.123 196.49C323.069 196.49 337.669 211.091 337.669 229.036C337.669 246.981 323.068 261.581 305.123 261.581ZM305.123 212.458C295.982 212.458 288.546 219.895 288.546 229.035C288.546 238.175 295.982 245.611 305.123 245.611C314.264 245.611 321.7 238.175 321.7 229.035C321.699 219.895 314.263 212.458 305.123 212.458Z" fill="black"/>
<path fill-rule="evenodd" clip-rule="evenodd" d="M384.772 133.529L420.792 259.6C425.993 277.803 418.011 297.058 401.382 306.422C386.335 314.894 370.035 322.11 352.935 327.869C350.39 328.726 347.773 329.136 345.185 329.136C336.759 329.137 328.621 324.787 324.142 317.322L311.092 295.571C308.823 291.79 310.05 286.885 313.831 284.616C317.613 282.347 322.516 283.574 324.785 287.355L337.835 309.106C339.859 312.479 344.067 314.007 347.838 312.735C363.992 307.296 379.371 300.491 393.547 292.509C403.712 286.785 408.602 275.056 405.439 263.988L369.419 137.917C367.136 129.926 361.086 123.639 353.236 121.101C338.516 116.34 323.302 112.661 308.016 110.163C305.58 109.764 303.189 110.436 301.286 112.054C299.384 113.67 298.293 116.022 298.293 118.505V118.505C298.293 122.737 301.402 126.315 305.574 127.029C320.104 129.516 334.466 133.094 348.57 137.762C352.756 139.147 355.026 143.665 353.641 147.851C352.532 151.205 349.412 153.329 346.063 153.329C345.231 153.329 344.386 153.199 343.553 152.923C315.194 143.537 285.739 138.778 256.003 138.778C226.257 138.778 196.801 143.536 168.453 152.917C164.264 154.302 159.749 152.032 158.364 147.846C156.978 143.66 159.249 139.142 163.435 137.757C178.112 132.899 193.072 129.216 208.211 126.721C212.25 126.055 215.269 122.6 215.269 118.506V118.506C215.269 116.023 214.178 113.671 212.276 112.055C210.373 110.438 207.987 109.764 205.545 110.164C190.26 112.662 175.046 116.342 160.326 121.102C152.475 123.64 146.426 129.927 144.142 137.918L128.326 193.274C127.114 197.515 122.694 199.97 118.454 198.759V198.759C114.213 197.547 111.758 193.127 112.97 188.887L128.786 133.53C132.535 120.411 142.488 110.085 155.411 105.906C170.893 100.9 186.894 97.0296 202.97 94.4026C210.007 93.2576 217.167 95.2526 222.617 99.8866C228.095 104.543 231.237 111.33 231.237 118.506V118.506C231.237 121.388 233.702 123.65 236.578 123.458C243.034 123.029 249.51 122.809 256.001 122.809C262.966 122.809 269.916 123.065 276.842 123.561C279.788 123.772 282.322 121.459 282.322 118.506V118.506C282.322 111.33 285.463 104.543 290.942 99.8866C296.393 95.2516 303.555 93.2566 310.588 94.4026C326.665 97.0296 342.666 100.9 358.148 105.906C371.071 110.085 381.024 120.411 384.772 133.529ZM111.545 224.1C107.237 222.681 102.614 225.13 101.369 229.49L92.766 259.6C87.565 277.804 95.547 297.059 112.178 306.423C127.225 314.895 143.525 322.11 160.625 327.87C163.17 328.727 165.785 329.137 168.375 329.137C176.8 329.137 184.94 324.787 189.418 317.323L202.739 295.121C205.008 291.339 203.782 286.435 200.001 284.166C196.218 281.898 191.315 283.122 189.046 286.905L175.725 309.107C173.701 312.479 169.494 314.007 165.722 312.736C149.568 307.296 134.189 300.491 120.014 292.51C109.849 286.786 104.959 275.058 108.122 263.988L116.725 233.878C117.902 229.756 115.616 225.441 111.545 224.1V224.1Z" fill="black"/>
<path d="M256 308.658C226.694 308.658 198.023 302.279 170.781 289.698C166.778 287.849 165.031 283.105 166.88 279.101C168.728 275.096 173.472 273.35 177.477 275.2C202.604 286.804 229.023 292.689 256 292.689C282.977 292.689 309.397 286.805 334.523 275.2C338.527 273.349 343.271 275.097 345.12 279.101C346.969 283.105 345.222 287.849 341.219 289.698C313.978 302.279 285.306 308.658 256 308.658Z" fill="black"/>
</svg>
