<svg width="552" height="570" viewBox="0 0 552 570" fill="none" xmlns="http://www.w3.org/2000/svg">
<g clip-path="url(#clip0)">
<path d="M542.963 562.815L413.124 465.991L427.544 507.496H81.3013C41.4755 507.496 9.17212 476.549 9.17212 438.347V78.7721C9.17212 40.5858 41.4755 9.62305 81.3013 9.62305H470.834C510.676 9.62305 542.963 40.5703 542.963 78.7721V562.815Z" fill="#8B0E12"/>
<path d="M542.963 570.719C541.167 570.719 539.403 570.163 537.943 569.052L429.501 488.203L435.339 504.996C436.173 507.404 435.756 510.059 434.216 512.112C432.66 514.18 430.19 515.399 427.544 515.399H81.3013C37.0005 515.399 0.959961 480.84 0.959961 438.348V78.7725C0.959961 36.2798 37.0005 1.7207 81.3013 1.7207H470.834C515.135 1.7207 551.176 36.2798 551.176 78.7725V562.816C551.176 565.841 549.395 568.573 546.572 569.901C545.433 570.456 544.198 570.719 542.963 570.719ZM413.124 458.089C414.889 458.089 416.669 458.645 418.145 459.741L534.751 546.702V78.7725C534.751 45.0006 506.073 17.5262 470.834 17.5262H81.3013C46.0628 17.5262 17.3843 45.0006 17.3843 78.7725V438.348C17.3843 472.119 46.0628 499.594 81.3013 499.594H416.14L405.329 468.492C404.19 465.189 405.426 461.562 408.377 459.54C409.788 458.583 411.456 458.089 413.124 458.089Z" fill="black"/>
<path d="M348.245 385.003C346.946 385.003 345.727 384.417 344.957 383.413L331.965 366.682C331.179 365.663 330.938 364.367 331.323 363.147C331.708 361.943 332.671 361.002 333.922 360.585C348.165 355.846 361.301 349.487 373.186 341.523C346.336 352.435 314.209 357.791 276.068 357.791C237.926 357.791 205.815 352.435 178.949 341.523C190.834 349.487 203.955 355.846 218.214 360.585C219.465 361.002 220.427 361.943 220.812 363.147C221.197 364.367 220.956 365.663 220.17 366.682L207.178 383.413C206.409 384.417 205.174 385.003 203.89 385.003C203.89 385.003 203.89 385.003 203.874 385.003C201.228 384.988 138.674 384.185 96.4103 337.649C95.7046 336.861 95.3517 335.843 95.4159 334.809C102.457 223.522 142.588 166.659 144.304 164.298C144.529 163.973 144.817 163.696 145.138 163.464C146.582 162.353 181.211 136.422 227.516 132.146C227.645 132.146 227.773 132.131 227.901 132.131C229.457 132.131 230.885 132.98 231.59 134.338L235.408 141.824C235.953 142.92 235.953 144.186 235.424 145.282C234.878 146.377 233.836 147.165 232.601 147.427C215.743 151.023 202.142 156.256 190.658 162.384C213.771 153.956 240.107 148.307 276.324 148.307C312.814 148.307 339.279 154.126 362.6 162.785C351.485 156.858 337.932 151.703 319.454 147.412C318.251 147.134 317.241 146.347 316.712 145.251C316.182 144.17 316.198 142.92 316.744 141.84L320.561 134.354C321.251 132.995 322.678 132.146 324.234 132.146C324.346 132.146 324.443 132.146 324.539 132.146C368.775 135.326 405.441 162.291 406.981 163.449C407.318 163.68 407.607 163.973 407.847 164.313C409.548 166.675 449.678 223.522 456.736 334.824C456.8 335.858 456.447 336.877 455.725 337.664C413.461 384.201 350.908 385.003 348.277 385.019C348.261 385.003 348.245 385.003 348.245 385.003Z" fill="#231F20"/>
<path d="M348.245 385.003C346.946 385.003 345.727 384.417 344.957 383.413L331.965 366.682C331.179 365.663 330.938 364.367 331.323 363.147C331.708 361.943 332.671 361.002 333.922 360.585C348.165 355.846 361.301 349.487 373.186 341.523C346.336 352.435 314.209 357.791 276.068 357.791C237.926 357.791 205.815 352.435 178.949 341.523C190.834 349.487 203.955 355.846 218.214 360.585C219.465 361.002 220.427 361.943 220.812 363.147C221.197 364.367 220.956 365.663 220.17 366.682L207.178 383.413C206.409 384.417 205.174 385.003 203.89 385.003C203.89 385.003 203.89 385.003 203.874 385.003C201.228 384.988 138.674 384.185 96.4103 337.649C95.7046 336.861 95.3517 335.843 95.4159 334.809C102.457 223.522 142.588 166.659 144.304 164.298C144.529 163.973 144.817 163.696 145.138 163.464C146.582 162.353 181.211 136.422 227.516 132.146C227.645 132.146 227.773 132.131 227.901 132.131C229.457 132.131 230.885 132.98 231.59 134.338L235.408 141.824C235.953 142.92 235.953 144.186 235.424 145.282C234.878 146.377 233.836 147.165 232.601 147.427C215.743 151.023 202.142 156.256 190.658 162.384C213.771 153.956 240.107 148.307 276.324 148.307C312.814 148.307 339.279 154.126 362.6 162.785C351.485 156.858 337.932 151.703 319.454 147.412C318.251 147.134 317.241 146.347 316.712 145.251C316.182 144.17 316.198 142.92 316.744 141.84L320.561 134.354C321.251 132.995 322.678 132.146 324.234 132.146C324.346 132.146 324.443 132.146 324.539 132.146C368.775 135.326 405.441 162.291 406.981 163.449C407.318 163.68 407.607 163.973 407.847 164.313C409.548 166.675 449.678 223.522 456.736 334.824C456.8 335.858 456.447 336.877 455.725 337.664C413.461 384.201 350.908 385.003 348.277 385.019C348.261 385.003 348.245 385.003 348.245 385.003Z" fill="url(#paint0_linear)"/>
<path d="M324.234 136.067C367.733 139.2 404.463 166.551 404.463 166.551C404.463 166.551 445.572 223.584 452.63 335.056C411.104 380.79 348.245 381.052 348.245 381.052L335.253 364.32C357.42 356.958 382.714 343.761 404.463 319.806C378.479 338.59 339.343 353.84 276.068 353.84C212.792 353.84 173.656 338.59 147.672 319.806C169.422 343.761 194.716 356.958 216.882 364.32L203.891 381.052C203.891 381.052 141.032 380.79 99.5061 335.056C106.563 223.584 147.672 166.551 147.672 166.551C147.672 166.551 182.269 140.281 227.902 136.067L231.719 143.553C195.967 151.162 174.506 165.872 155.724 182.063C188.06 166.15 220.379 152.243 276.325 152.243C332.27 152.243 364.06 166.15 396.412 182.063C377.613 165.872 359.681 152.675 320.417 143.553L324.234 136.067ZM227.902 128.164C227.645 128.164 227.372 128.179 227.116 128.21C179.639 132.594 144.08 159.219 142.588 160.346C141.946 160.84 141.385 161.411 140.936 162.044C139.188 164.452 98.4315 222.179 91.31 334.562C91.1817 336.645 91.9035 338.683 93.3149 340.257C136.782 388.121 201.132 388.939 203.842 388.955C203.858 388.955 203.875 388.955 203.891 388.955C206.473 388.955 208.911 387.782 210.467 385.775L223.459 369.044C225.031 367.022 225.512 364.398 224.726 361.99C224.084 359.952 222.625 358.285 220.716 357.313C237.605 360.261 256.035 361.727 276.068 361.727C296.101 361.727 314.53 360.261 331.42 357.313C329.511 358.285 328.052 359.952 327.41 361.99C326.624 364.398 327.105 367.022 328.677 369.044L341.669 385.775C343.225 387.782 345.663 388.955 348.245 388.955C348.261 388.955 348.277 388.955 348.293 388.955C351.004 388.939 415.354 388.121 458.821 340.257C460.232 338.683 460.954 336.645 460.826 334.562C453.704 222.179 412.948 164.452 411.2 162.044C410.735 161.38 410.141 160.809 409.484 160.3C407.912 159.127 370.283 131.467 324.844 128.195C324.635 128.179 324.443 128.164 324.234 128.164C321.123 128.164 318.252 129.862 316.856 132.594L313.055 140.08C312.028 142.086 311.932 144.433 312.798 146.501C301.747 145.096 289.701 144.34 276.325 144.34C262.739 144.34 250.517 145.112 239.322 146.532C240.204 144.448 240.124 142.102 239.081 140.08L235.28 132.594C233.884 129.862 231.013 128.164 227.902 128.164Z" fill="black"/>
<path d="M358.19 270.414C358.19 290.047 345.326 305.976 329.447 305.976C313.568 305.976 300.704 290.047 300.704 270.414C300.704 250.781 313.568 234.852 329.447 234.852C345.326 234.852 358.19 250.781 358.19 270.414Z" fill="white"/>
<path d="M329.447 238.803C343 238.803 354.083 252.973 354.083 270.414C354.083 287.856 343 302.025 329.447 302.025C315.894 302.025 304.81 287.856 304.81 270.414C304.81 252.973 315.894 238.803 329.447 238.803ZM329.447 230.9C311.338 230.9 296.598 248.62 296.598 270.414C296.598 292.208 311.338 309.928 329.447 309.928C347.555 309.928 362.296 292.208 362.296 270.414C362.296 248.62 347.555 230.9 329.447 230.9Z" fill="black"/>
<path d="M251.431 270.414C251.431 290.047 238.568 305.976 222.689 305.976C206.81 305.976 193.946 290.047 193.946 270.414C193.946 250.781 206.81 234.852 222.689 234.852C238.568 234.852 251.431 250.781 251.431 270.414Z" fill="white"/>
<path d="M222.689 238.803C236.242 238.803 247.325 252.973 247.325 270.414C247.325 287.856 236.242 302.025 222.689 302.025C209.135 302.025 198.052 287.856 198.052 270.414C198.052 252.973 209.135 238.803 222.689 238.803ZM222.689 230.9C204.58 230.9 189.84 248.62 189.84 270.414C189.84 292.208 204.58 309.928 222.689 309.928C240.797 309.928 255.537 292.208 255.537 270.414C255.537 248.62 240.797 230.9 222.689 230.9Z" fill="black"/>
<path d="M506.009 225.406C503.747 225.406 501.903 223.631 501.903 221.455V178.067C501.903 175.89 503.747 174.115 506.009 174.115C508.27 174.115 510.115 175.89 510.115 178.067V221.455C510.115 223.631 508.27 225.406 506.009 225.406Z" fill="black"/>
<path d="M506.009 157.816C503.747 157.816 501.903 156.041 501.903 153.864V118.549C501.903 116.373 503.747 114.598 506.009 114.598C508.27 114.598 510.115 116.373 510.115 118.549V153.864C510.115 156.041 508.27 157.816 506.009 157.816Z" fill="black"/>
<path d="M88.4871 475.885C62.8562 475.885 42.021 455.835 42.021 431.17V85.9497C42.021 61.2845 62.8562 41.2344 88.4871 41.2344H463.665C465.926 41.2344 467.771 43.0094 467.771 45.1857C467.771 47.3621 465.926 49.1371 463.665 49.1371H88.4871C67.3953 49.1371 50.2332 65.6526 50.2332 85.9497V431.17C50.2332 451.467 67.3953 467.983 88.4871 467.983C90.7487 467.983 92.5932 469.758 92.5932 471.934C92.5932 474.11 90.7487 475.885 88.4871 475.885Z" fill="black"/>
<path d="M173.945 475.885H114.968C112.707 475.885 110.862 474.11 110.862 471.934C110.862 469.757 112.707 467.982 114.968 467.982H173.945C176.207 467.982 178.051 469.757 178.051 471.934C178.051 474.11 176.207 475.885 173.945 475.885Z" fill="black"/>
<path d="M369.465 475.885H209.328C207.066 475.885 205.222 474.11 205.222 471.934C205.222 469.757 207.066 467.982 209.328 467.982H369.465C371.727 467.982 373.571 469.757 373.571 471.934C373.571 474.11 371.727 475.885 369.465 475.885Z" fill="black"/>
<path d="M490.403 466.733C489.2 466.733 488.029 466.239 487.211 465.266C485.783 463.584 486.04 461.099 487.804 459.71C496.754 452.702 501.903 442.283 501.903 431.17V253.744C501.903 251.553 503.747 249.793 506.009 249.793C508.271 249.793 510.115 251.553 510.115 253.744V431.17C510.115 444.676 503.876 457.317 492.985 465.853C492.231 466.439 491.317 466.733 490.403 466.733Z" fill="black"/>
</g>
<defs>
<linearGradient id="paint0_linear" x1="276.076" y1="132.131" x2="276" y2="403" gradientUnits="userSpaceOnUse">
<stop stop-color="#060606"/>
<stop offset="1" stop-color="#040404" stop-opacity="0"/>
<stop offset="1" stop-color="#040404" stop-opacity="0"/>
</linearGradient>
<clipPath id="clip0">
<rect width="552" height="570" fill="white"/>
</clipPath>
</defs>
</svg>
