<svg width="570" height="567" viewBox="0 0 570 567" fill="none" xmlns="http://www.w3.org/2000/svg">
<path d="M545 53.3333V499.667C545 523.597 525.634 543 501.748 543H56.252C32.3663 543 13 523.597 13 499.667V53.3333C13 29.4027 32.3663 10 56.252 10H501.748C525.634 10 545 29.4027 545 53.3333Z" fill="#8B0E12"/>
<path d="M225.059 435.873C208.758 435.682 195.402 424.643 195.227 411.218L195.185 408.02C195.01 394.594 208.082 383.866 224.383 384.057C240.683 384.249 254.04 395.287 254.215 408.713L254.257 411.911C254.432 425.336 241.36 436.064 225.059 435.873Z" fill="#1C191A"/>
<path d="M220.394 198.056C221.47 188.705 226.293 180.107 234.292 173.49C243.384 165.968 255.453 161.932 268.351 162.083C268.582 162.086 268.819 162.089 269.05 162.094C295.163 162.707 316.94 181.089 317.592 203.072C317.919 214.149 313.076 224.527 303.95 232.292C294.824 240.062 282.56 244.257 269.416 244.103L269.082 244.097C268.908 244.095 268.735 244.093 268.562 244.091C248.405 243.854 229.564 250.185 215.454 261.946C201.326 273.723 193.667 289.541 193.888 306.49L194.513 354.274C194.56 357.892 198.082 360.865 202.38 360.915L245.409 361.42C249.707 361.471 253.152 358.579 253.105 354.961L252.486 307.533C252.436 303.723 254.065 300.014 257.258 297.378C260.425 294.763 264.665 293.357 269.145 293.409L269.261 293.411L270.06 293.425C299.008 293.765 326.02 284.526 346.124 267.417C366.221 250.307 376.892 227.456 376.169 203.074C375.472 179.506 363.999 157.165 343.863 140.167C323.727 123.168 297.218 113.445 269.22 112.789C268.703 112.778 268.193 112.767 267.679 112.761C239.293 112.428 212.715 121.324 192.689 137.892C173.553 153.723 162.643 174.704 161.638 197.367L161.836 212.509C161.883 216.127 165.405 219.101 169.703 219.151L212.887 219.658C217.182 219.708 220.627 216.819 220.583 213.201L220.394 198.056Z" fill="#231F20"/>
<path d="M220.394 198.056C221.47 188.705 226.293 180.107 234.292 173.49C243.384 165.968 255.453 161.932 268.351 162.083C268.582 162.086 268.819 162.089 269.05 162.094C295.163 162.707 316.94 181.089 317.592 203.072C317.919 214.149 313.076 224.527 303.95 232.292C294.824 240.062 282.56 244.257 269.416 244.103L269.082 244.097C268.908 244.095 268.735 244.093 268.562 244.091C248.405 243.854 229.564 250.185 215.454 261.946C201.326 273.723 193.667 289.541 193.888 306.49L194.513 354.274C194.56 357.892 198.082 360.865 202.38 360.915L245.409 361.42C249.707 361.471 253.152 358.579 253.105 354.961L252.486 307.533C252.436 303.723 254.065 300.014 257.258 297.378C260.425 294.763 264.665 293.357 269.145 293.409L269.261 293.411L270.06 293.425C299.008 293.765 326.02 284.526 346.124 267.417C366.221 250.307 376.892 227.456 376.169 203.074C375.472 179.506 363.999 157.165 343.863 140.167C323.727 123.168 297.218 113.445 269.22 112.789C268.703 112.778 268.193 112.767 267.679 112.761C239.293 112.428 212.715 121.324 192.689 137.892C173.553 153.723 162.643 174.704 161.638 197.367L161.836 212.509C161.883 216.127 165.405 219.101 169.703 219.151L212.887 219.658C217.182 219.708 220.627 216.819 220.583 213.201L220.394 198.056Z" fill="url(#paint0_linear)"/>
<path d="M369.83 174.393C374.017 183.329 378.39 198.571 377.164 212.731" stroke="black" stroke-width="13"/>
<path d="M289.881 168.355C300.599 172.404 307.837 177.678 314.418 189.217" stroke="black" stroke-width="12"/>
<path fill-rule="evenodd" clip-rule="evenodd" d="M225.105 440.689C239.93 440.863 252.556 433.462 257.676 422.847C259.227 419.63 259.58 415.983 259.791 412.389L260.042 408.125C259.431 392.335 243.561 379.407 224.301 379.181C214.06 379.061 204.866 382.557 198.474 388.23C196.066 390.368 194.351 393.144 192.815 395.981V395.981C191.188 398.984 189.674 402.124 189.379 405.554C189.312 406.334 189.283 407.124 189.293 407.921L189.335 411.119C189.545 427.195 205.592 440.46 225.105 440.689ZM155.514 198.544C155.845 191.322 157.182 184.251 159.457 177.443L168.435 158.847C173.671 150.744 180.407 143.282 188.51 136.722C209.746 119.538 238.032 110.269 268.164 110.622C268.709 110.628 269.254 110.637 269.802 110.651C299.537 111.34 327.69 121.451 349.069 139.124C357.088 145.753 363.809 153.163 369.122 161.13C369.13 161.142 369.14 161.151 369.152 161.158V161.158V161.158C369.165 161.164 369.174 161.175 369.181 161.187L375.044 172.802C376.776 176.233 374.53 180.241 370.739 180.484V180.484C368.364 180.636 366.152 179.193 365.162 177.001C359.964 165.489 351.735 154.88 340.843 145.875C321.667 130.024 296.421 120.953 269.76 120.335C269.264 120.322 268.777 120.314 268.29 120.308C241.269 119.991 215.901 128.304 196.858 143.715C178.77 158.358 168.266 177.998 167.27 199.032L167.464 213.842C167.475 214.732 168.367 215.466 169.444 215.479L212.944 215.989C214.025 216.002 214.895 215.288 214.883 214.398L214.697 199.468C214.695 199.296 214.705 199.125 214.724 198.953C215.95 188.519 221.375 179.14 230.408 171.828C240.644 163.542 254.289 159.074 268.827 159.245L269.589 159.256C277.802 159.449 285.716 161.125 293.138 164.244C296.06 165.471 297.276 168.393 295.859 170.77C294.442 173.147 290.922 174.077 288.003 172.849C282.185 170.405 275.984 169.089 269.575 168.941L268.95 168.931C257.523 168.797 246.799 172.308 238.753 178.819C231.725 184.51 227.476 191.786 226.458 199.875L226.641 214.541C226.716 220.769 220.631 225.764 213.071 225.675L169.571 225.165C162.008 225.077 155.787 219.934 155.706 213.704L155.511 198.776C155.51 198.698 155.512 198.62 155.514 198.544ZM377.512 204.525C374.253 204.524 371.707 207.18 371.534 210.43C370.441 230.924 360.443 249.942 342.966 264.495C323.814 280.444 298.085 289.048 270.546 288.725L269.588 288.709C263.501 288.637 257.791 290.502 253.508 293.963C249.3 297.364 246.924 302.261 246.991 307.405L247.602 354.158C247.614 355.049 246.742 355.762 245.664 355.75L202.32 355.241C201.239 355.229 200.351 354.494 200.339 353.604L199.723 306.497C199.522 291.09 206.642 276.71 219.767 266.009C232.874 255.322 250.408 249.556 269.14 249.776L270.004 249.788C284.826 249.962 298.662 245.337 308.955 236.762C319.249 228.192 324.717 216.738 324.349 204.511C324.092 195.89 320.801 187.461 314.834 180.132C313.001 177.887 309.344 177.243 306.663 178.695C303.981 180.146 303.292 183.145 305.121 185.391C309.81 191.148 312.395 197.758 312.596 204.507C312.884 214.122 308.587 223.126 300.498 229.863C292.403 236.603 281.528 240.239 269.905 240.102L269.017 240.089C247.158 239.833 226.692 246.564 211.392 259.038C196.049 271.549 187.731 288.354 187.966 306.362L188.582 353.466C188.663 359.699 194.884 364.839 202.446 364.928L245.79 365.436C253.353 365.525 259.441 360.529 259.36 354.296L258.749 307.543C258.715 304.98 259.844 302.582 261.847 300.964C263.94 299.273 266.732 298.363 269.715 298.398L270.639 298.411C301.381 298.771 330.072 289.179 351.426 271.396C371.127 254.993 382.303 233.505 383.318 210.372C383.459 207.145 380.746 204.526 377.512 204.525V204.525ZM248.356 411.811C248.496 422.547 238.007 431.155 224.979 431.003C211.947 430.85 201.233 421.993 201.093 411.257L201.051 408.059C200.911 397.326 211.397 388.717 224.428 388.87C237.456 389.023 248.174 397.88 248.314 408.613L248.356 411.811Z" fill="black"/>
<g filter="url(#filter0_d)">
<path d="M294.617 317.43L312.893 317.643C316.562 317.686 319.5 315.218 319.459 312.128C319.419 309.041 316.415 306.501 312.746 306.458L294.47 306.245C290.8 306.203 287.863 308.673 287.904 311.76C287.944 314.851 290.948 317.387 294.617 317.43V317.43Z" fill="black"/>
</g>
<g filter="url(#filter1_d)">
<path d="M357.603 327.609L294.745 326.874C291.076 326.832 288.138 329.3 288.179 332.385C288.219 335.473 291.223 338.007 294.892 338.05L357.749 338.785C361.415 338.828 364.356 336.362 364.316 333.275C364.275 330.19 361.268 327.652 357.603 327.609Z" fill="black"/>
</g>
<g filter="url(#filter2_d)">
<path d="M357.832 344.754L294.974 344.019C291.305 343.976 288.367 346.444 288.408 349.529C288.448 352.617 291.452 355.152 295.121 355.195L357.978 355.929C361.644 355.972 364.585 353.507 364.545 350.419C364.504 347.334 361.497 344.797 357.832 344.754Z" fill="black"/>
</g>
<path d="M502.161 0H54.3464C24.3795 0 0 24.3795 0 54.3464V502.161C0 532.128 24.3795 556.507 54.3464 556.507H502.161C532.128 556.507 556.507 532.128 556.507 502.161V54.3464C556.507 24.3795 532.128 0 502.161 0ZM534.769 502.161C534.769 520.142 520.142 534.769 502.161 534.769H54.3464C36.3654 534.769 21.7386 520.142 21.7386 502.161V54.3464C21.7386 36.3654 36.3654 21.7386 54.3464 21.7386H502.161C520.142 21.7386 534.769 36.3654 534.769 54.3464V502.161Z" fill="black"/>
<path d="M509 241C506.797 241 505 239.062 505 236.686V189.314C505 186.938 506.797 185 509 185C511.203 185 513 186.938 513 189.314V236.686C513 239.062 511.203 241 509 241Z" fill="black"/>
<path d="M509 168C506.797 168 505 166.07 505 163.703V125.297C505 122.93 506.797 121 509 121C511.203 121 513 122.93 513 125.297V163.703C513 166.07 511.203 168 509 168Z" fill="black"/>
<path d="M91.4934 513C65.8474 513 45 491.227 45 464.442V89.5577C45 62.773 65.8474 41 91.4934 41H466.892C469.154 41 471 42.9276 471 45.2909C471 47.6543 469.154 49.5818 466.892 49.5818H91.4934C70.3892 49.5818 53.217 67.5165 53.217 89.5577V464.442C53.217 486.484 70.3892 504.418 91.4934 504.418C93.7563 504.418 95.6019 506.346 95.6019 508.709C95.6019 511.072 93.7563 513 91.4934 513Z" fill="black"/>
<path d="M176.905 513H118.095C115.839 513 114 510.979 114 508.5C114 506.021 115.839 504 118.095 504H176.905C179.161 504 181 506.021 181 508.5C181 510.979 179.161 513 176.905 513Z" fill="black"/>
<path d="M372.878 513H212.122C209.852 513 208 510.979 208 508.5C208 506.021 209.852 504 212.122 504H372.878C375.148 504 377 506.021 377 508.5C377 510.979 375.148 513 372.878 513Z" fill="black"/>
<path d="M493.143 503C491.932 503 490.752 502.463 489.928 501.405C488.49 499.575 488.749 496.871 490.526 495.36C499.541 487.737 504.728 476.403 504.728 464.313V271.299C504.728 268.914 506.586 267 508.864 267C511.142 267 513 268.914 513 271.299V464.313C513 479.005 506.715 492.757 495.745 502.043C494.985 502.681 494.064 503 493.143 503Z" fill="black"/>
<defs>
<filter id="filter0_d" x="283.903" y="306.244" width="39.5566" height="19.3986" filterUnits="userSpaceOnUse" color-interpolation-filters="sRGB">
<feFlood flood-opacity="0" result="BackgroundImageFix"/>
<feColorMatrix in="SourceAlpha" type="matrix" values="0 0 0 0 0 0 0 0 0 0 0 0 0 0 0 0 0 0 127 0"/>
<feOffset dy="4"/>
<feGaussianBlur stdDeviation="2"/>
<feColorMatrix type="matrix" values="0 0 0 0 0 0 0 0 0 0 0 0 0 0 0 0 0 0 0.25 0"/>
<feBlend mode="normal" in2="BackgroundImageFix" result="effect1_dropShadow"/>
<feBlend mode="normal" in="SourceGraphic" in2="effect1_dropShadow" result="shape"/>
</filter>
<filter id="filter1_d" x="284.178" y="326.873" width="84.1382" height="19.9114" filterUnits="userSpaceOnUse" color-interpolation-filters="sRGB">
<feFlood flood-opacity="0" result="BackgroundImageFix"/>
<feColorMatrix in="SourceAlpha" type="matrix" values="0 0 0 0 0 0 0 0 0 0 0 0 0 0 0 0 0 0 127 0"/>
<feOffset dy="4"/>
<feGaussianBlur stdDeviation="2"/>
<feColorMatrix type="matrix" values="0 0 0 0 0 0 0 0 0 0 0 0 0 0 0 0 0 0 0.25 0"/>
<feBlend mode="normal" in2="BackgroundImageFix" result="effect1_dropShadow"/>
<feBlend mode="normal" in="SourceGraphic" in2="effect1_dropShadow" result="shape"/>
</filter>
<filter id="filter2_d" x="284.407" y="344.018" width="84.1382" height="19.9114" filterUnits="userSpaceOnUse" color-interpolation-filters="sRGB">
<feFlood flood-opacity="0" result="BackgroundImageFix"/>
<feColorMatrix in="SourceAlpha" type="matrix" values="0 0 0 0 0 0 0 0 0 0 0 0 0 0 0 0 0 0 127 0"/>
<feOffset dy="4"/>
<feGaussianBlur stdDeviation="2"/>
<feColorMatrix type="matrix" values="0 0 0 0 0 0 0 0 0 0 0 0 0 0 0 0 0 0 0.25 0"/>
<feBlend mode="normal" in2="BackgroundImageFix" result="effect1_dropShadow"/>
<feBlend mode="normal" in="SourceGraphic" in2="effect1_dropShadow" result="shape"/>
</filter>
<linearGradient id="paint0_linear" x1="267.766" y1="112.762" x2="234.315" y2="362.17" gradientUnits="userSpaceOnUse">
<stop stop-color="#060606"/>
<stop offset="0.807581" stop-color="#040404" stop-opacity="0"/>
</linearGradient>
</defs>
</svg>
