<svg width="512" height="512" viewBox="0 0 512 512" fill="none" xmlns="http://www.w3.org/2000/svg">
<path d="M504 50V462C504 484.09 486.09 502 464 502H52C29.9102 502 12 484.09 12 462V50C12 27.9102 29.9102 10 52 10H464C486.09 10 504 27.9102 504 50Z" fill="#8B0E12"/>
<path d="M214.559 456.938C197.006 456.938 182.776 443.341 182.776 426.569V422.574C182.776 405.801 197.006 392.205 214.559 392.205C232.112 392.205 246.342 405.801 246.342 422.574V426.569C246.342 443.341 232.112 456.938 214.559 456.938Z" fill="#F5F5F5"/>
<path d="M212.276 161.262C213.566 149.564 218.882 138.75 227.59 130.366C237.49 120.835 250.545 115.615 264.435 115.615C264.684 115.615 264.939 115.615 265.188 115.618C293.306 116.002 316.503 138.648 316.895 166.105C317.092 179.939 311.73 192.977 301.791 202.812C291.852 212.654 278.584 218.075 264.429 218.075L264.069 218.071C263.882 218.071 263.695 218.071 263.509 218.071C241.801 218.071 221.42 226.257 206.056 241.159C190.674 256.079 182.201 275.954 182.201 297.127V356.819C182.201 361.339 185.953 365.002 190.582 365.002H236.92C241.549 365.002 245.301 361.339 245.301 356.819V297.571C245.301 292.812 247.108 288.155 250.584 284.815C254.032 281.5 258.618 279.681 263.443 279.681H263.568L264.429 279.688C295.604 279.688 324.827 267.749 346.722 246.078C368.609 224.407 380.424 195.7 379.988 165.248C379.569 135.813 367.526 108.068 346.077 87.1259C324.628 66.1833 296.213 54.4239 266.066 54.0147C265.509 54.0083 264.959 54.002 264.406 54.002C233.837 54.002 205.084 65.5057 183.282 86.4994C162.448 106.56 150.401 132.933 149 161.262V180.178C149 184.698 152.752 188.361 157.381 188.361H203.886C208.512 188.361 212.263 184.701 212.266 180.182L212.276 161.262Z" fill="#F9F9F9"/>
<path fill-rule="evenodd" clip-rule="evenodd" d="M214.559 462.988C231.245 462.988 245.459 452.689 250.61 438.396C251.671 435.45 251.999 432.308 252.193 429.183L252.65 421.793C252.215 402.075 235.301 386.156 214.559 386.156C203.412 386.156 193.365 390.754 186.391 398.07C183.906 400.676 182.177 403.88 180.631 407.133L180.065 408.325C178.496 411.624 177.075 415.036 176.665 418.666C176.52 419.95 176.445 421.254 176.445 422.575V426.57C176.445 446.651 193.543 462.988 214.559 462.988ZM143.007 161.486C143.465 152.458 145.005 143.604 147.551 135.065L157.483 111.701C163.238 101.502 170.598 92.0803 179.419 83.765C202.536 61.9858 233.135 49.9902 265.587 49.9902C266.174 49.9902 266.761 49.9934 267.351 50.0028C299.371 50.4282 329.555 62.6475 352.335 84.4141C360.88 92.5788 368.015 101.738 373.626 111.615C373.634 111.628 373.644 111.64 373.658 111.648V111.648V111.648C373.671 111.655 373.681 111.668 373.687 111.682L380.427 127.487C382.012 131.202 379.507 135.381 375.483 135.735V135.735C372.727 135.977 370.186 134.278 369.208 131.69C363.776 117.31 355.035 104.109 343.379 92.9689C322.946 73.4457 295.879 62.4837 267.17 62.1024C266.636 62.0929 266.111 62.0898 265.587 62.0898C236.485 62.0898 209.042 72.847 188.313 92.3796C168.623 110.939 157.032 135.629 155.663 161.924V180.423C155.663 181.535 156.613 182.439 157.774 182.439H204.623C205.787 182.439 206.734 181.535 206.734 180.423L206.744 161.772C206.744 161.558 206.757 161.344 206.78 161.13C208.247 148.075 214.223 136.278 224.056 127.011C235.199 116.509 249.959 110.727 265.617 110.727L266.438 110.731C275.282 110.85 283.783 112.829 291.734 116.617C294.863 118.107 296.133 121.74 294.573 124.73C293.014 127.72 289.208 128.934 286.082 127.443C279.849 124.475 273.188 122.922 266.286 122.83L265.613 122.827C253.307 122.827 241.705 127.371 232.947 135.623C225.296 142.835 220.617 151.989 219.407 162.11L219.397 180.429C219.39 188.209 212.765 194.539 204.623 194.539H157.774C149.628 194.539 143 188.206 143 180.423V161.776C143 161.678 143.003 161.58 143.007 161.486ZM382.025 165.706C378.525 165.752 375.747 168.633 375.583 172.13C374.361 198.143 363.284 222.448 343.995 241.135C323.141 261.342 295.305 272.468 265.646 272.468L264.614 272.461C258.058 272.461 251.882 274.875 247.219 279.261C242.639 283.571 240.01 289.725 240.01 296.15V354.552C240.01 355.665 239.061 356.569 237.9 356.569H191.218C190.054 356.569 189.108 355.665 189.108 354.552V295.709C189.108 276.463 196.979 258.392 211.268 244.831C225.537 231.288 244.505 223.827 264.68 223.827L265.61 223.83C281.574 223.83 296.542 217.849 307.751 206.985C318.959 196.127 325.011 181.737 324.786 166.467C324.631 155.701 321.205 145.217 314.88 136.149C312.938 133.37 309.007 132.62 306.099 134.473C303.19 136.326 302.405 140.081 304.344 142.861C309.314 149.985 312.005 158.206 312.127 166.634C312.301 178.643 307.546 189.954 298.738 198.49C289.924 207.029 278.158 211.73 265.64 211.73L264.683 211.727C241.141 211.727 219.001 220.436 202.345 236.245C185.642 252.1 176.445 273.218 176.445 295.712V354.552C176.445 362.338 183.073 368.668 191.218 368.668H237.9C246.045 368.668 252.673 362.338 252.673 354.552V296.15C252.673 292.949 253.923 289.936 256.103 287.885C258.382 285.742 261.402 284.564 264.614 284.564L265.61 284.567C298.718 284.567 329.759 272.162 353.011 249.633C374.705 228.616 387.081 201.231 388.267 171.946C388.408 168.455 385.519 165.66 382.025 165.706V165.706ZM240.01 426.57C240.01 439.98 228.591 450.889 214.559 450.889C200.524 450.889 189.108 439.98 189.108 426.57V422.575C189.108 409.167 200.524 398.259 214.559 398.259C228.591 398.259 240.01 409.167 240.01 422.575V426.57Z" fill="black"/>
<path d="M291.148 307.977H310.825C314.776 307.977 317.974 304.85 317.974 300.989C317.974 297.132 314.776 294.002 310.825 294.002H291.148C287.198 294.002 284 297.132 284 300.989C284 304.85 287.198 307.977 291.148 307.977V307.977Z" fill="black"/>
<path d="M358.82 319.768H291.148C287.198 319.768 284 322.897 284 326.755C284 330.616 287.198 333.742 291.148 333.742H358.82C362.767 333.742 365.969 330.616 365.969 326.755C365.969 322.897 362.767 319.768 358.82 319.768Z" fill="black"/>
<path d="M358.82 341.182H291.149C287.198 341.182 284 344.311 284 348.169C284 352.03 287.198 355.156 291.149 355.156H358.82C362.767 355.156 365.969 352.03 365.969 348.169C365.969 344.311 362.767 341.182 358.82 341.182Z" fill="black"/>
<path d="M476 282C476 287.523 471.523 292 466 292C460.477 292 456 287.523 456 282C456 276.477 460.477 272 466 272C471.523 272 476 276.477 476 282Z" fill="black"/>
<path fill-rule="evenodd" clip-rule="evenodd" d="M286.326 497.218H58.1469C36.5615 497.218 19 479.41 19 457.519V274H21.3481L39.3481 452.519C39.3481 465.827 50.0246 476.654 63.1479 476.654C76.2712 476.654 286.327 491.654 286.327 491.654L286.326 497.218Z" fill="#060606" fill-opacity="0.4"/>
<path d="M462 0H50C22.4297 0 0 22.4297 0 50V462C0 489.57 22.4297 512 50 512H462C489.57 512 512 489.57 512 462V50C512 22.4297 489.57 0 462 0ZM492 462C492 478.543 478.543 492 462 492H50C33.457 492 20 478.543 20 462V50C20 33.457 33.457 20 50 20H462C478.543 20 492 33.457 492 50V462Z" fill="black"/>
<path fill-rule="evenodd" clip-rule="evenodd" d="M351.885 44.2518C351.859 38.8895 356.204 34.5316 361.567 34.5412L434.985 34.6724C456.567 34.3079 474.427 51.8168 474.796 73.7042L475.826 240.063C475.864 246.28 470.982 251.416 464.771 251.693V251.693C458.133 251.988 452.611 246.645 452.687 240.002L454.535 79.0471C454.311 65.7417 443.453 55.0957 430.332 55.3173C420.387 55.4852 380.482 54.6916 361.744 54.2975C356.271 54.1824 351.911 49.7258 351.885 44.2518V44.2518Z" fill="black"/>
<path d="M379.775 170.28C379.775 242.633 306.644 278.369 273.809 275.879C270.606 275.879 262.032 273.604 258.885 273.388C303.161 261.433 360.716 239.495 360.716 170.28C360.716 101.064 305.426 66.9753 236 66.1696C239.147 64.9572 242.821 63.1781 246.024 62.1819C306.146 53.2157 384.75 97.926 379.775 170.28Z" fill="black" fill-opacity="0.25"/>
</svg>
