<svg width="803" height="771" viewBox="0 0 803 771" fill="none" xmlns="http://www.w3.org/2000/svg">
<path d="M658.46 678.479L531.501 584.017L545.601 624.509H207.039C168.097 624.509 136.51 594.317 136.51 557.047V206.242C136.51 168.987 168.097 138.779 207.039 138.779H587.931C626.889 138.779 658.46 168.972 658.46 206.242V678.479Z" fill="#8B0E12"/>
<path d="M658.46 686.19C656.703 686.19 654.978 685.648 653.551 684.564L547.514 605.687L553.223 622.071C554.039 624.42 553.631 627.01 552.125 629.013C550.604 631.031 548.189 632.22 545.601 632.22H207.039C163.721 632.22 128.48 598.504 128.48 557.048V206.243C128.48 164.786 163.721 131.07 207.039 131.07H587.931C631.249 131.07 666.49 164.786 666.49 206.243V678.48C666.49 681.432 664.749 684.097 661.989 685.392C660.875 685.934 659.668 686.19 658.46 686.19ZM531.501 576.308C533.226 576.308 534.967 576.85 536.41 577.919L650.43 662.759V206.243C650.43 173.295 622.388 146.49 587.931 146.49H207.039C172.582 146.49 144.54 173.295 144.54 206.243V557.048C144.54 589.996 172.582 616.8 207.039 616.8H534.45L523.879 586.457C522.766 583.235 523.973 579.696 526.859 577.723C528.239 576.79 529.87 576.308 531.501 576.308Z" fill="black"/>
<path d="M468.061 505.006C466.791 505.006 465.599 504.434 464.846 503.455L452.142 487.131C451.374 486.137 451.138 484.872 451.515 483.683C451.891 482.508 452.832 481.59 454.056 481.183C467.983 476.56 480.828 470.356 492.449 462.586C466.195 473.232 434.78 478.457 397.485 478.457C360.189 478.457 328.791 473.232 302.521 462.586C314.142 470.356 326.971 476.56 340.914 481.183C342.137 481.59 343.078 482.508 343.455 483.683C343.831 484.872 343.596 486.137 342.828 487.131L330.124 503.455C329.371 504.434 328.163 505.006 326.909 505.006C326.909 505.006 326.909 505.006 326.893 505.006C324.305 504.991 263.139 504.208 221.813 458.806C221.123 458.038 220.778 457.044 220.841 456.035C227.726 347.463 266.966 291.987 268.644 289.683C268.864 289.367 269.146 289.096 269.46 288.87C270.871 287.786 304.732 262.487 350.011 258.316C350.136 258.316 350.262 258.301 350.387 258.301C351.908 258.301 353.304 259.129 353.994 260.454L357.727 267.758C358.26 268.827 358.26 270.062 357.743 271.131C357.209 272.2 356.19 272.968 354.982 273.224C338.499 276.733 325.199 281.837 313.97 287.816C336.57 279.594 362.322 274.082 397.736 274.082C433.416 274.082 459.294 279.759 482.098 288.207C471.229 282.425 457.977 277.395 439.909 273.209C438.733 272.938 437.745 272.17 437.227 271.101C436.71 270.046 436.725 268.827 437.258 267.773L440.991 260.469C441.666 259.144 443.061 258.316 444.583 258.316C444.693 258.316 444.787 258.316 444.881 258.316C488.136 261.418 523.989 287.725 525.494 288.855C525.824 289.081 526.106 289.367 526.341 289.698C528.004 292.002 567.244 347.463 574.145 456.05C574.208 457.059 573.863 458.053 573.157 458.821C531.831 504.223 470.665 505.006 468.092 505.021C468.077 505.006 468.061 505.006 468.061 505.006Z" fill="white"/>
<path d="M444.583 262.14C487.117 265.197 523.032 291.88 523.032 291.88C523.032 291.88 563.229 347.522 570.13 456.275C529.525 500.894 468.061 501.15 468.061 501.15L455.357 484.826C477.032 477.643 501.765 464.768 523.032 441.397C497.625 459.723 459.357 474.601 397.485 474.601C335.613 474.601 297.345 459.723 271.938 441.397C293.205 464.768 317.938 477.643 339.613 484.826L326.909 501.15C326.909 501.15 265.445 500.894 224.84 456.275C231.741 347.522 271.938 291.88 271.938 291.88C271.938 291.88 305.767 266.251 350.387 262.14L354.12 269.443C319.161 276.867 298.176 291.218 279.811 307.014C311.429 291.489 343.032 277.921 397.736 277.921C452.44 277.921 483.525 291.489 515.159 307.014C496.778 291.218 479.244 278.343 440.85 269.443L444.583 262.14ZM350.387 254.43C350.136 254.43 349.87 254.445 349.619 254.475C303.195 258.752 268.425 284.728 266.966 285.827C266.339 286.309 265.79 286.866 265.351 287.483C263.641 289.832 223.789 346.152 216.826 455.793C216.7 457.826 217.406 459.814 218.786 461.35C261.289 508.047 324.211 508.845 326.862 508.86C326.877 508.86 326.893 508.86 326.909 508.86C329.434 508.86 331.818 507.715 333.339 505.758L346.043 489.434C347.58 487.461 348.05 484.901 347.282 482.552C346.654 480.565 345.227 478.938 343.361 477.99C359.876 480.866 377.896 482.296 397.485 482.296C417.074 482.296 435.094 480.866 451.609 477.99C449.743 478.938 448.316 480.565 447.688 482.552C446.92 484.901 447.39 487.461 448.927 489.434L461.631 505.758C463.152 507.715 465.536 508.86 468.061 508.86C468.077 508.86 468.093 508.86 468.108 508.86C470.759 508.845 533.681 508.047 576.184 461.35C577.564 459.814 578.27 457.826 578.144 455.793C571.181 346.152 531.329 289.832 529.619 287.483C529.164 286.836 528.584 286.279 527.941 285.782C526.404 284.637 489.61 257.652 445.179 254.46C444.975 254.445 444.787 254.43 444.583 254.43C441.54 254.43 438.733 256.086 437.368 258.752L433.651 266.055C432.648 268.013 432.553 270.301 433.4 272.319C422.594 270.949 410.816 270.211 397.736 270.211C384.452 270.211 372.501 270.964 361.554 272.349C362.416 270.317 362.338 268.028 361.319 266.055L357.602 258.752C356.237 256.086 353.43 254.43 350.387 254.43Z" fill="black"/>
<path d="M477.785 393.211C477.785 412.365 465.207 427.906 449.68 427.906C434.153 427.906 421.575 412.365 421.575 393.211C421.575 374.056 434.153 358.516 449.68 358.516C465.207 358.516 477.785 374.056 477.785 393.211Z" fill="#8B0E12"/>
<path d="M449.68 362.37C462.933 362.37 473.77 376.194 473.77 393.21C473.77 410.226 462.933 424.05 449.68 424.05C436.427 424.05 425.59 410.226 425.59 393.21C425.59 376.194 436.427 362.37 449.68 362.37ZM449.68 354.66C431.973 354.66 417.56 371.947 417.56 393.21C417.56 414.473 431.973 431.76 449.68 431.76C467.387 431.76 481.8 414.473 481.8 393.21C481.8 371.947 467.387 354.66 449.68 354.66Z" fill="black"/>
<path d="M373.395 393.211C373.395 412.365 360.817 427.906 345.29 427.906C329.763 427.906 317.185 412.365 317.185 393.211C317.185 374.056 329.763 358.516 345.29 358.516C360.817 358.516 373.395 374.056 373.395 393.211Z" fill="#8B0E12"/>
<path d="M345.29 362.37C358.543 362.37 369.38 376.194 369.38 393.21C369.38 410.226 358.543 424.05 345.29 424.05C332.037 424.05 321.2 410.226 321.2 393.21C321.2 376.194 332.037 362.37 345.29 362.37ZM345.29 354.66C327.583 354.66 313.17 371.947 313.17 393.21C313.17 414.473 327.583 431.76 345.29 431.76C362.997 431.76 377.41 414.473 377.41 393.21C377.41 371.947 362.997 354.66 345.29 354.66Z" fill="black"/>
<path d="M622.325 349.299C620.114 349.299 618.31 347.568 618.31 345.444V303.115C618.31 300.992 620.114 299.26 622.325 299.26C624.536 299.26 626.34 300.992 626.34 303.115V345.444C626.34 347.568 624.536 349.299 622.325 349.299Z" fill="black"/>
<path d="M622.325 283.357C620.114 283.357 618.31 281.626 618.31 279.502V245.048C618.31 242.925 620.114 241.193 622.325 241.193C624.536 241.193 626.34 242.925 626.34 245.048V279.502C626.34 281.626 624.536 283.357 622.325 283.357Z" fill="black"/>
<path d="M214.065 593.671C189.003 593.671 168.63 574.11 168.63 550.046V213.246C168.63 189.182 189.003 169.621 214.065 169.621H580.92C583.132 169.621 584.935 171.353 584.935 173.476C584.935 175.599 583.132 177.331 580.92 177.331H214.065C193.441 177.331 176.66 193.444 176.66 213.246V550.046C176.66 569.848 193.441 585.961 214.065 585.961C216.277 585.961 218.08 587.693 218.08 589.816C218.08 591.939 216.277 593.671 214.065 593.671Z" fill="black"/>
<path d="M297.628 593.671H239.959C237.748 593.671 235.944 591.939 235.944 589.816C235.944 587.693 237.748 585.961 239.959 585.961H297.628C299.839 585.961 301.643 587.693 301.643 589.816C301.643 591.939 299.839 593.671 297.628 593.671Z" fill="black"/>
<path d="M488.811 593.671H332.226C330.014 593.671 328.211 591.939 328.211 589.816C328.211 587.693 330.014 585.961 332.226 585.961H488.811C491.022 585.961 492.826 587.693 492.826 589.816C492.826 591.939 491.022 593.671 488.811 593.671Z" fill="black"/>
<path d="M607.065 584.74C605.889 584.74 604.744 584.258 603.944 583.31C602.548 581.668 602.799 579.244 604.524 577.889C613.276 571.052 618.31 560.887 618.31 550.045V376.947C618.31 374.808 620.114 373.092 622.325 373.092C624.537 373.092 626.34 374.808 626.34 376.947V550.045C626.34 563.222 620.239 575.555 609.59 583.882C608.853 584.454 607.959 584.74 607.065 584.74Z" fill="black"/>
</svg>
