<svg height="512pt" viewBox="0 -72 512 511" width="512pt" xmlns="http://www.w3.org/2000/svg"><path d="m482 360.5h-452c-12.425781 0-22.5-10.074219-22.5-22.5v-289.5h496.996094v289.5c0 12.425781-10.070313 22.5-22.496094 22.5zm0 0" fill="#fff9eb"/><path d="m474.496094 48.5v259.5c0 12.425781-10.070313 22.5-22.5 22.5h-444.496094v7.5c0 12.425781 10.074219 22.5 22.5 22.5h452c12.425781 0 22.5-10.074219 22.5-22.5v-289.5zm0 0" fill="#d3cdbf"/><path d="m482 8h-451.996094c-12.429687 0-22.5 10.074219-22.5 22.5v30h496.996094v-30c0-12.425781-10.074219-22.5-22.5-22.5zm0 0" fill="#596775"/><g fill="#46525e"><path d="m482 8h-7.5c0 12.425781-10.074219 22.5-22.5 22.5h-444.496094v30h496.996094v-30c0-12.425781-10.074219-22.5-22.5-22.5zm0 0"/><path d="m145.125 126.75h-69c-8.285156 0-15 6.714844-15 15v137.605469c0 7.699219 5.640625 14.457031 13.292969 15.300781 9.046875.996094 16.707031-6.058594 16.707031-14.90625v-54h30.605469c7.699219 0 14.453125-5.640625 15.300781-13.292969.996094-9.050781-6.058594-16.707031-14.90625-16.707031h-31v-39h53.605469c7.699219 0 14.453125-5.640625 15.300781-13.292969.996094-9.050781-6.058594-16.707031-14.90625-16.707031zm0 0"/><path d="m222.703125 135.984375c-2.191406-5.855469-7.789063-9.734375-14.042969-9.734375s-11.851562 3.878906-14.046875 9.734375l-51.910156 138.429687c-2.90625 7.757813 1.023437 16.402344 8.777344 19.3125 7.757812 2.90625 16.402343-1.023437 19.3125-8.78125l9.449219-25.195312h56.835937l9.449219 25.195312c2.910156 7.761719 11.554687 11.6875 19.3125 8.78125 7.757812-2.910156 11.6875-11.554687 8.777344-19.3125zm-31.210937 93.765625 17.167968-45.78125 17.164063 45.78125zm0 0"/><path d="m446.480469 268.574219-10.707031-10.707031c9.355468-13.546876 14.851562-29.949219 14.851562-47.617188 0-46.316406-37.683594-84-84-84s-84 37.683594-84 84 37.683594 84 84 84c17.832031 0 34.371094-5.601562 47.988281-15.117188l10.652344 10.652344c5.859375 5.859375 15.355469 5.859375 21.214844 0 5.859375-5.855468 5.859375-15.351562 0-21.210937zm-79.855469-4.324219c-29.777344 0-54-24.226562-54-54s24.222656-54 54-54c29.773438 0 54 24.226562 54 54 0 9.363281-2.398438 18.175781-6.609375 25.859375l-13.679687-13.679687c-5.855469-5.855469-15.355469-5.855469-21.214844 0-5.855469 5.859374-5.855469 15.355468 0 21.214843l13.765625 13.765625c-7.777344 4.347656-16.734375 6.839844-26.261719 6.839844zm0 0"/></g><path d="m482 .5h-451.996094c-16.542968 0-29.99999975 13.457031-29.99999975 30v29.960938c0 .011718-.00390625.027343-.00390625.039062 0 2.589844 1.3125 4.871094 3.308594 6.21875.035156.023438.078125.046875.113281.070312 1.175781.761719 2.574219 1.210938 4.078125 1.210938h489.5v270c-.019531 8.261719-6.75 14.980469-15 15h-452c-8.25-.019531-14.980469-6.738281-15-15v-247.5c0-4.128906-3.359375-7.5-7.5-7.5-.257812 0-.511719.011719-.765625.039062-3.703125.375-6.601563 3.457032-6.7226562 7.21875 0 .078126-.0117188.152344-.0117188.230469v.011719 247.5c0 16.53125 13.367188 30 30 30h452c16.628906 0 29.980469-13.457031 30-30 0-12.78125 0-294.6875 0-307.5 0-16.542969-13.457031-30-30-30zm15 52.5h-481.996094v-22.5c0-8.269531 6.726563-15 15-15h451.996094c8.269531 0 15 6.730469 15 15zm0 0"/><path d="m34.980469 26.910156c-4.308594.925782-6.664063 4.980469-5.878907 8.820313 1.207032 6.457031 9.789063 8.273437 13.589844 2.699219 3.722656-5.65625-1.273437-12.839844-7.710937-11.519532zm0 0"/><path d="m65.011719 26.910156c-4.3125.925782-6.664063 4.980469-5.882813 8.820313 1.210938 6.457031 9.792969 8.273437 13.589844 2.699219 3.726562-5.65625-1.273438-12.839844-7.707031-11.519532zm0 0"/><path d="m95.039062 26.910156c-4.308593.925782-6.664062 4.980469-5.878906 8.820313 1.207032 6.457031 9.789063 8.273437 13.589844 2.699219 3.722656-5.65625-1.277344-12.839844-7.710938-11.519532zm0 0"/><path d="m145.125 119.25h-69c-12.40625 0-22.5 10.09375-22.5 22.5v137.605469c0 11.714843 8.585938 21.5 19.96875 22.753906 13.496094 1.492187 25.03125-9.074219 25.03125-22.359375v-46.5h23.105469c11.714843 0 21.496093-8.585938 22.753906-19.972656 1.480469-13.429688-9.007813-25.027344-22.359375-25.027344h-23.5v-24h46.105469c11.714843 0 21.496093-8.585938 22.753906-19.972656 1.480469-13.429688-9.007813-25.027344-22.359375-25.027344zm7.449219 23.382812c-.410157 3.710938-3.855469 6.617188-7.84375 6.617188h-53.605469c-4.144531 0-7.5 3.355469-7.5 7.5v39c0 4.144531 3.355469 7.5 7.5 7.5h31c4.390625 0 7.960938 3.777344 7.449219 8.382812-.410157 3.710938-3.855469 6.617188-7.84375 6.617188h-30.605469c-4.144531 0-7.5 3.355469-7.5 7.5v54c0 4.433594-3.824219 7.964844-8.386719 7.449219-3.707031-.410157-6.613281-3.851563-6.613281-7.84375v-137.605469c0-4.136719 3.363281-7.5 7.5-7.5h69c4.390625 0 7.960938 3.777344 7.449219 8.382812zm0 0"/><path d="m191.492188 237.25h34.335937c5.230469 0 8.859375-5.234375 7.019531-10.132812l-17.167968-45.78125c-1.097657-2.925782-3.894532-4.867188-7.019532-4.867188-3.128906 0-5.925781 1.941406-7.023437 4.867188l-17.167969 45.78125c-1.835938 4.898437 1.789062 10.132812 7.023438 10.132812zm17.167968-31.921875 6.34375 16.921875h-12.6875zm0 0"/><path d="m439.980469 251.789062c3.867187 1.761719 8.269531-.042968 9.9375-3.710937 5.449219-11.929687 8.210937-24.65625 8.199219-37.828125 0-50.480469-41.023438-91.5-91.5-91.5-50.335938 0-91.457032 40.867188-91.5 91.5.042968 50.558594 41.09375 91.5 91.5 91.5h.023437c16.539063 0 32.777344-4.5 46.957031-13.019531l6.363282 6.359375c8.75 8.769531 23.039062 8.800781 31.816406 0 4.199218-4.191406 6.601562-9.992188 6.589844-15.910156.011718-5.921876-2.390626-11.71875-6.589844-15.910157-2.882813-2.90625-7.65625-2.964843-10.597656 0-2.933594 2.917969-2.933594 7.679688 0 10.609375 2.90625 2.929688 2.933593 7.632813 0 10.609375-2.976563 2.9375-7.691407 2.914063-10.613282-.011719l-10.644531-10.648437c-2.628906-2.625-6.667969-2.894531-9.601563-.839844-12.890624 9-28 13.761719-43.699218 13.761719-42.148438 0-76.480469-34.21875-76.5-76.5.019531-42.308594 34.390625-76.5 76.5-76.5 42.199218 0 76.5 34.285156 76.5 76.5 0 11.011719-2.300782 21.640625-6.84375 31.601562-1.730469 3.753907-.0625 8.21875 3.703125 9.9375zm0 0"/><path d="m229.730469 133.351562c-3.339844-8.878906-11.78125-14.601562-21.070313-14.601562-9.285156 0-17.730468 5.71875-21.070312 14.601562l-51.910156 138.429688c-4.359376 11.652344 1.519531 24.578125 13.171874 28.96875 11.539063 4.316406 24.464844-1.4375 28.910157-13.03125.019531-.046875.039062-.089844.058593-.140625 1.449219-3.867187-.519531-8.199219-4.390624-9.65625-.851563-.320313-1.738282-.480469-2.628907-.480469-3.109375 0-5.941406 1.957032-7.03125 4.867188-.019531.0625-.039062.113281-.058593.160156-1.503907 3.757812-5.722657 5.671875-9.601563 4.230469-3.699219-1.375-5.898437-5.613281-4.378906-9.648438l51.910156-138.429687c1.089844-2.910156 3.910156-4.871094 7.019531-4.871094s5.929688 1.960938 7.019532 4.871094l51.910156 138.429687c1.460937 3.832031-.527344 8.214844-4.390625 9.648438-3.925781 1.476562-8.238281-.59375-9.648438-4.390625l-9.449219-25.1875c-1.089843-2.910156-3.910156-4.871094-7.023437-4.871094h-53.75c-4.128906 0-7.5 3.359375-7.5 7.5s3.371094 7.5 7.5 7.5h48.550781l7.621094 20.328125c4.40625 11.746094 17.4375 17.484375 28.96875 13.171875 11.71875-4.425781 17.5-17.398438 13.171875-28.96875zm0 0"/><path d="m395.03125 227.734375 13.679688 13.679687c3.539062 3.535157 9.484374 2.679688 11.882812-1.699218 4.925781-8.992188 7.53125-19.183594 7.53125-29.464844 0-33.910156-27.589844-61.5-61.5-61.5s-61.5 27.589844-61.5 61.5 27.589844 61.5 61.5 61.5c10.453125 0 20.804688-2.695312 29.925781-7.792969 4.347657-2.433593 5.148438-8.34375 1.640625-11.851562l-13.765625-13.765625c-2.929687-2.929688-2.929687-7.675782 0-10.605469 2.929688-2.933594 7.675781-2.933594 10.605469 0zm-21.210938 21.210937 5.90625 5.910157c-4.242187 1.25-8.660156 1.894531-13.101562 1.894531-25.640625 0-46.5-20.859375-46.5-46.5s20.859375-46.5 46.5-46.5 46.5 20.859375 46.5 46.5c0 4.273438-.597656 8.523438-1.75 12.613281l-5.734375-5.734375c-8.773437-8.773437-23.046875-8.773437-31.820313 0-8.792968 8.789063-8.792968 23.023438 0 31.816406zm0 0"/></svg>