<svg width="567" height="567" viewBox="0 0 567 567" fill="none" xmlns="http://www.w3.org/2000/svg">
<path d="M546 53.4146V500.585C546 524.561 526.488 544 502.423 544H53.5772C29.5119 544 10 524.561 10 500.585V53.4146C10 29.4391 29.5119 10 53.5772 10H502.423C526.488 10 546 29.4391 546 53.4146Z" fill="#8B0E12"/>
<path d="M218.119 320.12L395.071 151.992L360.645 393.825C360.155 397.268 356.346 399.131 353.327 397.405L218.119 320.12Z" fill="#231F20"/>
<path d="M218.119 320.12L395.071 151.992L360.645 393.825C360.155 397.268 356.346 399.131 353.327 397.405L218.119 320.12Z" fill="url(#paint0_linear)"/>
<path d="M397.071 152.992L111.755 258.123C107.778 259.589 107.389 265.061 111.119 267.074L177.181 302.74L397.071 152.992Z" fill="#231F20"/>
<path d="M397.071 152.992L111.755 258.123C107.778 259.589 107.389 265.061 111.119 267.074L177.181 302.74L397.071 152.992Z" fill="url(#paint1_linear)"/>
<path d="M190.032 424.107L177.677 304.957L394.4 150.66L190.032 424.107Z" fill="#0C0B0B"/>
<path d="M220.988 322.436L190.032 424.107L394.4 150.66L220.988 322.436Z" fill="#0D0C0C"/>
<g filter="url(#filter0_d)">
<path d="M398.722 151.726C398.898 146.05 393.035 141.946 387.765 144.014L229.619 206.552C225.502 208.18 223.484 212.839 225.112 216.956C226.74 221.074 231.399 223.093 235.514 221.464L333.07 182.885L284.702 217.519L173.706 296.997L117.272 268.221L200.692 235.234C204.809 233.605 206.827 228.947 205.199 224.83C203.57 220.712 198.911 218.693 194.797 220.322L105.002 255.832C100.228 257.719 97.0155 262.276 96.8303 267.404C96.6485 272.423 99.4104 277.112 103.882 279.392L166.897 311.52L179.116 426.317C179.866 433.414 189.265 435.979 193.522 430.25L252.118 351.402L350.944 404.846C358.862 409.131 368.896 403.892 369.95 394.985L398.672 152.409C398.702 152.185 398.714 151.954 398.722 151.726ZM247.531 330.695L231.061 321.79L319.913 233.298L306.772 250.981L247.531 330.695ZM222.605 335.443L237.868 343.697L207.996 383.893L222.605 335.443ZM315.066 215.495L212.111 318.034C211.185 318.957 210.467 320.144 210.092 321.399L190.86 385.182L182.874 310.151L315.066 215.495ZM354.564 388.577L261.78 338.401L379.217 180.379L354.564 388.577Z" fill="black"/>
</g>
<path d="M502.163 0H54.3467C24.3796 0 0 24.3796 0 54.3467V502.163C0 532.13 24.3796 556.51 54.3467 556.51H502.163C532.13 556.51 556.51 532.13 556.51 502.163V54.3467C556.51 24.3796 532.13 0 502.163 0ZM534.771 502.163C534.771 520.144 520.144 534.771 502.163 534.771H54.3467C36.3656 534.771 21.7387 520.144 21.7387 502.163V54.3467C21.7387 36.3656 36.3656 21.7387 54.3467 21.7387H502.163C520.144 21.7387 534.771 36.3656 534.771 54.3467V502.163Z" fill="black"/>
<path d="M508 240C505.797 240 504 238.062 504 235.686V188.314C504 185.938 505.797 184 508 184C510.203 184 512 185.938 512 188.314V235.686C512 238.062 510.203 240 508 240Z" fill="black"/>
<path d="M508 167C505.797 167 504 165.07 504 162.703V124.297C504 121.93 505.797 120 508 120C510.203 120 512 121.93 512 124.297V162.703C512 165.07 510.203 167 508 167Z" fill="black"/>
<path d="M90.4934 512C64.8474 512 44 490.227 44 463.442V88.5577C44 61.773 64.8474 40 90.4934 40H465.892C468.154 40 470 41.9276 470 44.2909C470 46.6543 468.154 48.5818 465.892 48.5818H90.4934C69.3892 48.5818 52.217 66.5165 52.217 88.5577V463.442C52.217 485.484 69.3892 503.418 90.4934 503.418C92.7563 503.418 94.6019 505.346 94.6019 507.709C94.6019 510.072 92.7563 512 90.4934 512Z" fill="black"/>
<path d="M175.905 512H117.095C114.839 512 113 509.979 113 507.5C113 505.021 114.839 503 117.095 503H175.905C178.161 503 180 505.021 180 507.5C180 509.979 178.161 512 175.905 512Z" fill="black"/>
<path d="M371.878 512H211.122C208.852 512 207 509.979 207 507.5C207 505.021 208.852 503 211.122 503H371.878C374.148 503 376 505.021 376 507.5C376 509.979 374.148 512 371.878 512Z" fill="black"/>
<path d="M492.143 502C490.932 502 489.752 501.463 488.928 500.405C487.49 498.575 487.749 495.871 489.526 494.36C498.541 486.737 503.728 475.403 503.728 463.313V270.299C503.728 267.914 505.586 266 507.864 266C510.142 266 512 267.914 512 270.299V463.313C512 478.005 505.715 491.757 494.745 501.043C493.985 501.681 493.064 502 492.143 502Z" fill="black"/>
<path d="M192.5 230L247.5 208" stroke="black" stroke-width="16"/>
<defs>
<filter id="filter0_d" x="92.8218" y="143.471" width="309.904" height="297.924" filterUnits="userSpaceOnUse" color-interpolation-filters="sRGB">
<feFlood flood-opacity="0" result="BackgroundImageFix"/>
<feColorMatrix in="SourceAlpha" type="matrix" values="0 0 0 0 0 0 0 0 0 0 0 0 0 0 0 0 0 0 127 0"/>
<feOffset dy="4"/>
<feGaussianBlur stdDeviation="2"/>
<feColorMatrix type="matrix" values="0 0 0 0 0 0 0 0 0 0 0 0 0 0 0 0 0 0 0.25 0"/>
<feBlend mode="normal" in2="BackgroundImageFix" result="effect1_dropShadow"/>
<feBlend mode="normal" in="SourceGraphic" in2="effect1_dropShadow" result="shape"/>
</filter>
<linearGradient id="paint0_linear" x1="314.114" y1="145.286" x2="293.601" y2="392.926" gradientUnits="userSpaceOnUse">
<stop stop-color="#060606"/>
<stop offset="1" stop-color="#040404" stop-opacity="0"/>
</linearGradient>
<linearGradient id="paint1_linear" x1="258.292" y1="141.496" x2="244.474" y2="308.315" gradientUnits="userSpaceOnUse">
<stop stop-color="#060606"/>
<stop offset="1" stop-color="#040404" stop-opacity="0"/>
</linearGradient>
</defs>
</svg>
