<svg width="512" height="512" viewBox="0 0 512 512" fill="none" xmlns="http://www.w3.org/2000/svg">
<path d="M502 50V462C502 484.09 484.09 502 462 502H50C27.9102 502 10 484.09 10 462V50C10 27.9102 27.9102 10 50 10H462C484.09 10 502 27.9102 502 50Z" fill="#8B0E12"/>
<path d="M218.119 320.12L395.071 151.992L360.645 393.825C360.155 397.268 356.346 399.131 353.327 397.405L218.119 320.12Z" fill="white"/>
<path d="M397.071 152.992L111.756 258.123C107.778 259.589 107.389 265.061 111.119 267.074L177.182 302.74L397.071 152.992Z" fill="white"/>
<path d="M386 53C386 58.5234 381.523 63 376 63C370.477 63 366 58.5234 366 53C366 47.4766 370.477 43 376 43C381.523 43 386 47.4766 386 53Z" fill="black"/>
<path d="M190.032 424.107L177.677 304.957L394.4 150.66L190.032 424.107Z" fill="#E5E5E5"/>
<path d="M220.988 322.436L190.032 424.107L394.4 150.66L220.988 322.436Z" fill="#E5E5E5"/>
<path d="M398.722 151.726C398.898 146.05 393.035 141.946 387.765 144.014L229.619 206.552C225.502 208.18 223.484 212.839 225.112 216.956C226.74 221.074 231.399 223.093 235.514 221.464L333.07 182.885L284.702 217.519L173.706 296.997L117.272 268.221L200.692 235.234C204.809 233.605 206.827 228.947 205.199 224.83C203.57 220.712 198.911 218.693 194.797 220.322L105.002 255.832C100.228 257.719 97.0155 262.276 96.8303 267.404C96.6485 272.423 99.4104 277.112 103.882 279.392L166.897 311.52L179.116 426.317C179.866 433.414 189.265 435.979 193.522 430.25L252.118 351.402L350.944 404.846C358.862 409.131 368.896 403.892 369.95 394.985L398.672 152.409C398.702 152.185 398.714 151.954 398.722 151.726ZM247.531 330.695L231.061 321.79L319.913 233.298L306.772 250.981L247.531 330.695ZM222.605 335.443L237.868 343.697L207.996 383.893L222.605 335.443ZM315.066 215.495L212.111 318.034C211.185 318.957 210.467 320.144 210.092 321.399L190.86 385.182L182.874 310.151L315.066 215.495ZM354.564 388.577L261.78 338.401L379.217 180.379L354.564 388.577Z" fill="black"/>
<path fill-rule="evenodd" clip-rule="evenodd" d="M286.326 497.218H58.1469C36.5615 497.218 19 479.41 19 457.519V274H21.3481L39.3481 452.519C39.3481 465.827 50.0246 476.654 63.1479 476.654C76.2712 476.654 286.327 491.654 286.327 491.654L286.326 497.218Z" fill="#060606" fill-opacity="0.4"/>
<path d="M462 0H50C22.4297 0 0 22.4297 0 50V462C0 489.57 22.4297 512 50 512H462C489.57 512 512 489.57 512 462V50C512 22.4297 489.57 0 462 0ZM492 462C492 478.543 478.543 492 462 492H50C33.457 492 20 478.543 20 462V50C20 33.457 33.457 20 50 20H462C478.543 20 492 33.457 492 50V462Z" fill="black"/>
<path d="M136 63H336C341.523 63 346 58.5234 346 53C346 47.4766 341.523 43 336 43H136C130.477 43 126 47.4766 126 53C126 58.5234 130.477 63 136 63Z" fill="black"/>
<path fill-rule="evenodd" clip-rule="evenodd" d="M250.699 225.933L371 162.499L291.94 188.438L247.379 206.377L184.229 231.755L112.022 260.817L119.958 280.807C123.714 279.612 132.641 279.787 135.327 278.352L250.699 225.933Z" fill="black" fill-opacity="0.25"/>
</svg>
