<svg width="513" height="579" viewBox="0 0 513 579" fill="none" xmlns="http://www.w3.org/2000/svg">
<g filter="url(#filter0_d)">
<path d="M438.738 528.23L435.276 508.747C419.252 418.545 353.553 354.15 277.551 354.15C201.549 354.15 135.85 418.545 119.826 508.747L116.366 528.23C113.374 545.069 123.944 560.965 138.132 560.965H416.973C431.159 560.965 441.729 545.069 438.738 528.23V528.23Z" fill="#8B0E12"/>
<path d="M438.738 528.23L435.277 508.747C427.948 467.491 410.223 431.641 385.878 404.873C387.848 416.428 388.886 428.396 388.886 440.66C388.886 487.208 373.972 529.523 349.638 560.963H416.972C431.159 560.965 441.729 545.069 438.738 528.23V528.23Z" fill="#060606" fill-opacity="0.4"/>
<path d="M277.551 519.062C326.742 519.062 366.618 470.647 366.618 410.923V386.71C340.903 366.026 310.179 354.15 277.551 354.15C244.923 354.15 214.199 366.028 188.484 386.71V410.923C188.484 470.647 228.36 519.062 277.551 519.062V519.062Z" fill="#040404"/>
<path d="M445.666 286.565C476.41 286.565 501.332 256.306 501.332 218.979C501.332 181.652 476.41 151.393 445.666 151.393H434.532V286.565H445.666Z" fill="#0C0B0B"/>
<path d="M445.666 258.179H434.532V286.565H445.666C476.41 286.565 501.332 256.306 501.332 218.979C501.332 214.109 500.898 209.363 500.093 204.785C494.721 235.296 472.398 258.179 445.666 258.179Z" fill="#060606"/>
<path d="M109.437 286.565C78.6924 286.565 53.7698 256.306 53.7698 218.979C53.7698 181.652 78.6924 151.393 109.437 151.393H120.57V286.565H109.437Z" fill="#0C0B0B"/>
<path d="M109.437 258.179H120.57V286.565H109.437C78.6924 286.565 53.7698 256.306 53.7698 218.979C53.7698 214.109 54.204 209.363 55.0097 204.785C60.3815 235.296 82.7042 258.179 109.437 258.179Z" fill="#060606"/>
<path d="M338.785 354.15H216.317C154.829 354.15 104.984 293.632 104.984 218.977C104.984 144.323 154.829 83.8047 216.317 83.8047H338.785C400.273 83.8047 450.118 144.323 450.118 218.977C450.118 293.632 400.273 354.15 338.785 354.15Z" fill="#8B0E12"/>
<path d="M405.172 110.459C412.624 133.619 416.718 158.82 416.718 185.184C416.718 255.126 387.927 316.892 343.957 354C403.043 350.719 450.118 291.525 450.118 218.977C450.118 174.53 432.448 135.095 405.172 110.459V110.459Z" fill="#060606" fill-opacity="0.4"/>
<path d="M216.317 310.896C174.573 310.896 140.61 269.661 140.61 218.978C140.61 168.295 174.573 127.061 216.317 127.061H338.785C380.529 127.061 414.492 168.295 414.492 218.978C414.492 269.661 380.529 310.896 338.785 310.896H216.317Z" fill="#040404"/>
<path d="M364.855 182.033L298.704 218.978C298.704 245.853 316.648 267.64 338.785 267.64C360.921 267.64 378.865 245.853 378.865 218.978C378.865 204.193 373.427 190.957 364.855 182.033V182.033Z" fill="#8B0E12"/>
<path d="M190.247 182.033L256.398 218.978C256.398 245.853 238.454 267.64 216.317 267.64C194.181 267.64 176.237 245.853 176.237 218.978C176.237 204.193 181.675 190.957 190.247 182.033V182.033Z" fill="#8B0E12"/>
<path d="M295.365 452.827H259.738C249.901 452.827 241.924 443.144 241.924 431.199C241.924 419.254 249.9 409.57 259.738 409.57H295.365C305.203 409.57 313.179 419.253 313.179 431.199C313.178 443.144 305.203 452.827 295.365 452.827Z" fill="#8B0E12"/>
<path fill-rule="evenodd" clip-rule="evenodd" d="M439.331 296.728H445.079C480.325 296.728 509 261.924 509 219.143C509 179.53 484.41 146.777 452.786 142.142L435.791 135.319C426.061 118.683 413.516 104.638 399.011 94.2016L383.026 84.581C369.181 77.7651 354.057 74 338.22 74H296.283C291.718 74 288.019 78.4913 288.019 84.0312C288.019 89.5712 291.718 94.0625 296.283 94.0625H338.222C395.044 94.0625 441.273 150.175 441.273 219.145C441.273 252.552 430.553 283.962 411.088 307.589C391.622 331.216 365.745 344.228 338.222 344.228H215.777C158.955 344.228 112.726 288.116 112.726 219.145C112.726 185.737 123.446 154.328 142.911 130.701C162.377 107.074 188.254 94.0625 215.777 94.0625H257.716C262.281 94.0625 265.98 89.5712 265.98 84.0312C265.98 78.4913 262.281 74 257.716 74H215.777C200.168 74 185.019 77.6153 170.967 84.5034L154.982 94.0999C146.423 100.255 138.442 107.752 131.222 116.514C126.419 122.344 122.08 128.587 118.216 135.171L101.214 142.142C69.5913 146.779 45 179.53 45 219.143C45 261.924 73.6739 296.728 108.921 296.728H114.759C134.182 333.857 167.106 359.598 205.083 363.702C192.779 370.687 181.138 379.459 170.479 389.907C140.419 419.353 119.376 460.818 111.228 506.664L107.767 526.14C105.816 537.14 108.036 548.469 113.861 557.224C119.684 565.979 128.34 571 137.608 571H416.391C425.659 571 434.315 565.979 440.139 557.225C445.964 548.47 448.186 537.14 446.232 526.139L442.773 506.669C442.095 502.844 441.338 499.113 440.526 495.581C439.299 490.244 434.738 487.125 430.343 488.618C425.948 490.109 423.379 495.643 424.607 500.978C425.331 504.124 426.006 507.458 426.616 510.894L430.075 530.367C430.969 535.41 429.951 540.605 427.279 544.621C424.609 548.634 420.64 550.938 416.391 550.938H137.608C133.36 550.938 129.39 548.634 126.72 544.621C124.048 540.605 123.028 535.409 123.923 530.368L127.383 510.894C134.632 470.118 153.187 433.189 179.691 406.69V410.995C179.691 421.581 180.847 432.066 183.124 442.161C184.13 446.618 187.459 449.544 191.09 449.544C191.812 449.544 192.547 449.428 193.277 449.185C197.68 447.72 200.271 442.203 199.065 436.86C197.176 428.492 196.218 419.79 196.218 410.995V392.298C220.352 374.124 248.43 364.29 276.999 364.29C306.058 364.29 333.932 374.319 357.78 392.301V410.995C357.78 465.061 321.542 509.047 276.999 509.047C253.144 509.047 230.642 496.346 215.265 474.2C212.324 469.964 207.11 469.425 203.621 472.995C200.13 476.565 199.686 482.894 202.628 487.129C221.15 513.809 248.259 529.11 276.999 529.11C330.656 529.11 374.309 476.123 374.309 410.995V406.69C388.893 421.259 401.357 439.181 410.82 459.867C413.035 464.71 418.064 466.457 422.056 463.769C426.046 461.079 427.485 454.972 425.269 450.129C407.669 411.654 380.721 381.776 348.965 363.705C376.849 360.71 402.741 346.093 422.777 321.774C429.109 314.086 434.643 305.688 439.331 296.728ZM492.47 219.143C492.47 249.622 472.836 274.628 448.115 276.536C454.461 258.646 457.801 239.208 457.801 219.145C457.801 198.767 454.317 179.36 448.043 161.744C472.798 163.608 492.47 188.634 492.47 219.143ZM61.5286 219.143C61.5286 188.664 81.1636 163.658 105.885 161.751C99.5379 179.642 96.198 199.082 96.198 219.145C96.198 239.522 99.6823 258.928 105.954 276.543C81.1999 274.676 61.5286 249.651 61.5286 219.143Z" fill="black"/>
<path d="M132.344 218.977C132.344 275.194 170.015 320.93 216.317 320.93H338.784C385.087 320.93 422.757 275.194 422.757 218.977C422.757 162.759 385.086 117.023 338.784 117.023H216.317C170.015 117.023 132.344 162.759 132.344 218.977V218.977ZM406.226 218.977C406.226 264.127 375.972 300.858 338.785 300.858H216.317C179.13 300.858 148.876 264.127 148.876 218.977C148.876 173.827 179.13 137.095 216.317 137.095H338.784C375.972 137.095 406.226 173.827 406.226 218.977Z" fill="black"/>
<path d="M338.785 277.677C365.443 277.677 387.131 251.345 387.131 218.979C387.131 201.838 380.973 185.595 370.236 174.415C367.783 171.862 364.334 171.275 361.4 172.916L295.249 209.861C292.318 211.498 290.438 215.059 290.438 218.977C290.438 251.345 312.126 277.677 338.785 277.677V277.677ZM363.086 194.068C367.907 200.994 370.598 209.791 370.598 218.979C370.598 240.278 356.326 257.605 338.784 257.605C322.979 257.605 309.829 243.541 307.38 225.179L363.086 194.068Z" fill="black"/>
<path d="M184.866 174.414C174.129 185.594 167.971 201.837 167.971 218.978C167.971 251.344 189.66 277.676 216.317 277.676C242.975 277.676 264.663 251.344 264.663 218.978C264.663 215.058 262.784 211.497 259.852 209.861L193.702 172.916C190.769 171.276 187.318 171.861 184.866 174.414V174.414ZM216.317 257.604C198.775 257.604 184.503 240.277 184.503 218.978C184.503 209.79 187.195 200.993 192.015 194.067L247.721 225.178C245.272 243.54 232.122 257.604 216.317 257.604V257.604Z" fill="black"/>
<path d="M295.365 462.864C309.745 462.864 321.444 448.659 321.444 431.199C321.444 413.739 309.745 399.535 295.365 399.535H259.737C245.358 399.535 233.659 413.739 233.659 431.199C233.659 448.659 245.358 462.864 259.737 462.864H295.365ZM250.191 431.199C250.191 424.808 254.473 419.607 259.737 419.607H295.365C300.629 419.607 304.912 424.807 304.912 431.199C304.912 437.592 300.629 442.792 295.365 442.792H259.737C254.473 442.792 250.191 437.592 250.191 431.199Z" fill="black"/>
</g>
<defs>
<filter id="filter0_d" x="-4" y="0" width="517" height="579" filterUnits="userSpaceOnUse" color-interpolation-filters="sRGB">
<feFlood flood-opacity="0" result="BackgroundImageFix"/>
<feColorMatrix in="SourceAlpha" type="matrix" values="0 0 0 0 0 0 0 0 0 0 0 0 0 0 0 0 0 0 127 0"/>
<feOffset dy="4"/>
<feGaussianBlur stdDeviation="2"/>
<feColorMatrix type="matrix" values="0 0 0 0 0 0 0 0 0 0 0 0 0 0 0 0 0 0 0.25 0"/>
<feBlend mode="normal" in2="BackgroundImageFix" result="effect1_dropShadow"/>
<feBlend mode="normal" in="SourceGraphic" in2="effect1_dropShadow" result="shape"/>
</filter>
</defs>
</svg>
