<svg width="903" height="903" viewBox="0 0 903 903" fill="none" xmlns="http://www.w3.org/2000/svg">
<path d="M451.5 0C202.54 0 0 202.54 0 451.5C0 700.46 202.54 903 451.5 903C700.46 903 903 700.46 903 451.5C903 202.54 700.46 0 451.5 0ZM451.5 838.501C238.101 838.501 64.4992 664.899 64.4992 451.5C64.4992 238.101 238.101 64.4992 451.5 64.4992C664.899 64.4992 838.501 238.101 838.501 451.5C838.501 664.899 664.899 838.501 451.5 838.501Z" fill="white"/>
<path d="M451.5 236.5C433.687 236.5 419.25 250.937 419.25 268.75V634.25C419.25 652.063 433.687 666.501 451.5 666.501C469.313 666.501 483.751 652.063 483.751 634.25V268.75C483.751 250.937 469.313 236.5 451.5 236.5Z" fill="white"/>
<path d="M634.25 419.25H268.75C250.937 419.25 236.5 433.687 236.5 451.501C236.5 469.314 250.937 483.751 268.75 483.751H634.25C652.063 483.751 666.5 469.314 666.5 451.501C666.5 433.687 652.063 419.25 634.25 419.25Z" fill="white"/>
</svg>
