<svg width="570" height="567" viewBox="0 0 570 567" fill="none" xmlns="http://www.w3.org/2000/svg">
<path d="M545 53.3333V499.667C545 523.597 525.634 543 501.748 543H56.252C32.3663 543 13 523.597 13 499.667V53.3333C13 29.4027 32.3663 10 56.252 10H501.748C525.634 10 545 29.4027 545 53.3333Z" fill="#8B0E12"/>
<path d="M502.161 0H54.3464C24.3795 0 0 24.3795 0 54.3464V502.161C0 532.128 24.3795 556.507 54.3464 556.507H502.161C532.128 556.507 556.507 532.128 556.507 502.161V54.3464C556.507 24.3795 532.128 0 502.161 0ZM534.769 502.161C534.769 520.142 520.142 534.769 502.161 534.769H54.3464C36.3654 534.769 21.7386 520.142 21.7386 502.161V54.3464C21.7386 36.3654 36.3654 21.7386 54.3464 21.7386H502.161C520.142 21.7386 534.769 36.3654 534.769 54.3464V502.161Z" fill="black"/>
<path d="M509 241C506.797 241 505 239.062 505 236.686V189.314C505 186.938 506.797 185 509 185C511.203 185 513 186.938 513 189.314V236.686C513 239.062 511.203 241 509 241Z" fill="black"/>
<path d="M509 168C506.797 168 505 166.07 505 163.703V125.297C505 122.93 506.797 121 509 121C511.203 121 513 122.93 513 125.297V163.703C513 166.07 511.203 168 509 168Z" fill="black"/>
<path d="M91.4934 513C65.8474 513 45 491.227 45 464.442V89.5577C45 62.773 65.8474 41 91.4934 41H466.892C469.154 41 471 42.9276 471 45.2909C471 47.6543 469.154 49.5818 466.892 49.5818H91.4934C70.3892 49.5818 53.217 67.5165 53.217 89.5577V464.442C53.217 486.484 70.3892 504.418 91.4934 504.418C93.7563 504.418 95.6019 506.346 95.6019 508.709C95.6019 511.072 93.7563 513 91.4934 513Z" fill="black"/>
<path d="M176.905 513H118.095C115.839 513 114 510.979 114 508.5C114 506.021 115.839 504 118.095 504H176.905C179.161 504 181 506.021 181 508.5C181 510.979 179.161 513 176.905 513Z" fill="black"/>
<path d="M372.878 513H212.122C209.852 513 208 510.979 208 508.5C208 506.021 209.852 504 212.122 504H372.878C375.148 504 377 506.021 377 508.5C377 510.979 375.148 513 372.878 513Z" fill="black"/>
<path d="M493.143 503C491.932 503 490.752 502.463 489.928 501.405C488.49 499.575 488.749 496.871 490.526 495.36C499.541 487.737 504.728 476.403 504.728 464.313V271.299C504.728 268.914 506.586 267 508.864 267C511.142 267 513 268.914 513 271.299V464.313C513 479.005 506.715 492.757 495.745 502.043C494.985 502.681 494.064 503 493.143 503Z" fill="black"/>
<g filter="url(#filter0_d)">
<path d="M184.058 212.047H121.858C114.389 212.047 108.336 218.1 108.336 225.569V349.612C108.336 356.553 113.421 362.644 120.319 363.405C128.475 364.303 135.38 357.944 135.38 349.968V301.29H162.969C169.909 301.29 175.998 296.205 176.762 289.307C177.66 281.148 171.3 274.247 163.325 274.247H135.38V239.09H183.702C190.643 239.09 196.731 234.005 197.495 227.107C198.393 218.949 192.033 212.047 184.058 212.047Z" fill="#231F20"/>
<path d="M184.058 212.047H121.858C114.389 212.047 108.336 218.1 108.336 225.569V349.612C108.336 356.553 113.421 362.644 120.319 363.405C128.475 364.303 135.38 357.944 135.38 349.968V301.29H162.969C169.909 301.29 175.998 296.205 176.762 289.307C177.66 281.148 171.3 274.247 163.325 274.247H135.38V239.09H183.702C190.643 239.09 196.731 234.005 197.495 227.107C198.393 218.949 192.033 212.047 184.058 212.047Z" fill="url(#paint0_linear)"/>
<path d="M253.99 220.371C252.015 215.092 246.969 211.596 241.331 211.596C235.694 211.596 230.648 215.092 228.669 220.371L181.875 345.157C179.255 352.151 182.797 359.943 189.787 362.567C196.78 365.186 204.573 361.644 207.196 354.651L215.714 331.939H266.949L275.466 354.651C278.09 361.647 285.882 365.186 292.876 362.567C299.869 359.943 303.411 352.151 300.788 345.157L253.99 220.371ZM225.855 304.895L241.331 263.626L256.804 304.895H225.855Z" fill="#231F20"/>
<path d="M253.99 220.371C252.015 215.092 246.969 211.596 241.331 211.596C235.694 211.596 230.648 215.092 228.669 220.371L181.875 345.157C179.255 352.151 182.797 359.943 189.787 362.567C196.78 365.186 204.573 361.644 207.196 354.651L215.714 331.939H266.949L275.466 354.651C278.09 361.647 285.882 365.186 292.876 362.567C299.869 359.943 303.411 352.151 300.788 345.157L253.99 220.371ZM225.855 304.895L241.331 263.626L256.804 304.895H225.855Z" fill="url(#paint1_linear)"/>
<path d="M455.713 339.893L446.061 330.241C454.495 318.03 459.449 303.244 459.449 287.317C459.449 245.565 425.479 211.596 383.728 211.596C341.976 211.596 308.006 245.565 308.006 287.317C308.006 329.069 341.976 363.038 383.728 363.038C399.802 363.038 414.711 357.989 426.986 349.411L436.589 359.014C441.871 364.295 450.431 364.295 455.713 359.014C460.995 353.735 460.995 345.175 455.713 339.893V339.893ZM383.728 335.995C356.885 335.995 335.05 314.156 335.05 287.317C335.05 260.478 356.885 238.639 383.728 238.639C410.567 238.639 432.406 260.478 432.406 287.317C432.406 295.758 430.244 303.701 426.448 310.628L414.116 298.296C408.838 293.018 400.274 293.018 394.992 298.296C389.714 303.578 389.714 312.138 394.992 317.42L407.401 329.829C400.39 333.748 392.316 335.995 383.728 335.995V335.995Z" fill="#231F20"/>
<path d="M455.713 339.893L446.061 330.241C454.495 318.03 459.449 303.244 459.449 287.317C459.449 245.565 425.479 211.596 383.728 211.596C341.976 211.596 308.006 245.565 308.006 287.317C308.006 329.069 341.976 363.038 383.728 363.038C399.802 363.038 414.711 357.989 426.986 349.411L436.589 359.014C441.871 364.295 450.431 364.295 455.713 359.014C460.995 353.735 460.995 345.175 455.713 339.893V339.893ZM383.728 335.995C356.885 335.995 335.05 314.156 335.05 287.317C335.05 260.478 356.885 238.639 383.728 238.639C410.567 238.639 432.406 260.478 432.406 287.317C432.406 295.758 430.244 303.701 426.448 310.628L414.116 298.296C408.838 293.018 400.274 293.018 394.992 298.296C389.714 303.578 389.714 312.138 394.992 317.42L407.401 329.829C400.39 333.748 392.316 335.995 383.728 335.995V335.995Z" fill="url(#paint2_linear)"/>
</g>
<g filter="url(#filter1_d)">
<path d="M183.869 205H122.132C111.031 205 102 214.101 102 225.287V349.357C102 359.92 109.682 368.742 119.867 369.873C131.943 371.218 142.264 361.691 142.264 349.713V307.787H162.937C173.419 307.787 182.171 300.045 183.296 289.779C184.621 277.67 175.236 267.213 163.29 267.213H142.264V245.574H183.516C193.998 245.574 202.75 237.832 203.875 227.566C205.2 215.457 195.815 205 183.869 205ZM190.534 226.083C190.167 229.429 187.085 232.049 183.516 232.049H135.553C131.845 232.049 128.842 235.075 128.842 238.811V273.975C128.842 277.712 131.845 280.738 135.553 280.738H163.29C167.219 280.738 170.413 284.143 169.955 288.296C169.588 291.642 166.506 294.262 162.937 294.262H135.553C131.845 294.262 128.842 297.288 128.842 301.025V349.713C128.842 353.71 125.421 356.894 121.338 356.429C118.022 356.06 115.421 352.957 115.421 349.357V225.287C115.421 221.557 118.43 218.525 122.132 218.525H183.869C187.798 218.525 190.992 221.93 190.534 226.083Z" fill="black"/>
</g>
<g filter="url(#filter2_d)">
<path d="M225.845 312H257.157C261.927 312 265.236 307.263 263.558 302.831L247.902 261.404C246.901 258.757 244.351 257 241.501 257C238.648 257 236.097 258.757 235.096 261.404L219.441 302.831C217.766 307.263 221.072 312 225.845 312ZM241.501 283.114L247.286 298.427H235.716L241.501 283.114Z" fill="black"/>
</g>
<g filter="url(#filter3_d)">
<path d="M449.444 324.953C452.926 326.542 456.89 324.915 458.392 321.607C463.299 310.851 465.785 299.376 465.775 287.5C465.775 241.985 428.837 205 383.387 205C338.064 205 301.039 241.847 301 287.5C301.039 333.086 338.001 370 383.387 370H383.409C398.3 370 412.922 365.943 425.689 358.261L431.419 363.995C439.297 371.902 452.163 371.93 460.066 363.995C463.847 360.216 466.011 354.986 466 349.65C466.011 344.31 463.847 339.084 460.066 335.304C457.471 332.684 453.173 332.631 450.524 335.304C447.883 337.935 447.883 342.229 450.524 344.87C453.141 347.512 453.166 351.752 450.524 354.436C447.844 357.085 443.599 357.064 440.968 354.426L431.383 344.825C429.016 342.458 425.38 342.215 422.738 344.067C411.131 352.182 397.527 356.475 383.391 356.475C345.44 356.475 314.527 325.622 314.51 287.5C314.527 249.353 345.475 218.525 383.391 218.525C421.388 218.525 452.272 249.437 452.272 287.5C452.272 297.429 450.201 307.012 446.11 315.993C444.552 319.378 446.054 323.404 449.444 324.953V324.953Z" fill="black"/>
</g>
<g filter="url(#filter4_d)">
<path d="M259.973 218.134C256.966 210.148 249.365 205 241.002 205C232.642 205 225.039 210.144 222.032 218.134L175.295 342.654C171.37 353.135 176.663 364.762 187.154 368.712C197.543 372.594 209.181 367.419 213.183 356.99C213.201 356.948 213.218 356.909 213.236 356.863C214.541 353.385 212.768 349.488 209.283 348.177C208.516 347.889 207.718 347.745 206.916 347.745C204.117 347.745 201.567 349.506 200.585 352.123C200.568 352.18 200.55 352.225 200.533 352.267C199.179 355.648 195.38 357.369 191.888 356.073C188.558 354.836 186.578 351.024 187.946 347.394L234.682 222.874C235.663 220.257 238.203 218.493 241.002 218.493C243.802 218.493 246.341 220.257 247.322 222.874L294.059 347.394C295.374 350.841 293.584 354.783 290.106 356.073C286.571 357.401 282.689 355.539 281.419 352.123L272.911 329.467C271.93 326.849 269.391 325.085 266.588 325.085H218.195C214.477 325.085 211.442 328.107 211.442 331.832C211.442 335.556 214.477 338.578 218.195 338.578H261.907L268.768 356.863C272.736 367.429 284.468 372.591 294.85 368.712C305.401 364.731 310.606 353.061 306.709 342.654L259.973 218.134Z" fill="black"/>
</g>
<g filter="url(#filter5_d)">
<mask id="path-16-inside-1" fill="white">
<path d="M409.135 303.279L421.48 315.624C424.674 318.814 430.039 318.042 432.204 314.09C436.649 305.975 439 296.778 439 287.5C439 256.898 414.102 232 383.5 232C352.898 232 328 256.898 328 287.5C328 318.102 352.898 343 383.5 343C392.933 343 402.275 340.568 410.506 335.967C414.43 333.771 415.152 328.438 411.987 325.272L399.564 312.849C396.92 310.206 396.92 305.922 399.564 303.279C402.208 300.631 406.491 300.631 409.135 303.279V303.279ZM389.993 322.42L395.323 327.754C391.495 328.882 387.508 329.463 383.5 329.463C360.361 329.463 341.537 310.639 341.537 287.5C341.537 264.361 360.361 245.537 383.5 245.537C406.639 245.537 425.463 264.361 425.463 287.5C425.463 291.357 424.924 295.192 423.884 298.883L418.709 293.708C410.792 285.79 397.911 285.79 389.993 293.708C382.058 301.639 382.058 314.485 389.993 322.42Z"/>
</mask>
<path d="M421.48 315.624L415.116 321.988L415.12 321.991L421.48 315.624ZM432.204 314.09L424.31 309.766L424.31 309.767L432.204 314.09ZM410.506 335.967L414.897 343.824L414.902 343.821L410.506 335.967ZM411.987 325.272L405.623 331.636L405.623 331.636L411.987 325.272ZM399.564 312.849L393.2 319.213L393.2 319.213L399.564 312.849ZM399.564 303.279L405.928 309.643L405.932 309.638L399.564 303.279ZM389.993 322.42L396.359 316.058L396.357 316.056L389.993 322.42ZM395.323 327.754L397.867 336.387L412.396 332.106L401.689 321.392L395.323 327.754ZM423.884 298.883L417.52 305.247L428.381 316.108L432.547 301.323L423.884 298.883ZM389.993 293.708L396.356 300.073L396.357 300.072L389.993 293.708ZM402.771 309.643L415.116 321.988L427.844 309.26L415.499 296.915L402.771 309.643ZM415.12 321.991C422.557 329.42 435.049 327.629 440.097 318.414L424.31 309.767C425.029 308.454 426.791 308.208 427.84 309.256L415.12 321.991ZM440.097 318.414C445.27 308.97 448 298.286 448 287.5H430C430 295.271 428.027 302.98 424.31 309.766L440.097 318.414ZM448 287.5C448 251.928 419.072 223 383.5 223V241C409.131 241 430 261.869 430 287.5H448ZM383.5 223C347.928 223 319 251.928 319 287.5H337C337 261.869 357.869 241 383.5 241V223ZM319 287.5C319 323.072 347.928 352 383.5 352V334C357.869 334 337 313.131 337 287.5H319ZM383.5 352C394.47 352 405.323 349.174 414.897 343.824L406.115 328.111C399.227 331.961 391.397 334 383.5 334V352ZM414.902 343.821C424.049 338.701 425.723 326.28 418.351 318.908L405.623 331.636C404.582 330.595 404.81 328.842 406.11 328.114L414.902 343.821ZM418.351 318.908L405.928 306.485L393.2 319.213L405.623 331.636L418.351 318.908ZM405.928 306.485C406.799 307.356 406.799 308.772 405.928 309.643L393.2 296.915C387.042 303.073 387.042 313.055 393.2 319.213L405.928 306.485ZM405.932 309.638C405.06 310.511 403.639 310.511 402.767 309.638L415.503 296.919C409.344 290.751 399.355 290.751 393.196 296.919L405.932 309.638ZM383.627 328.782L388.957 334.116L401.689 321.392L396.359 316.058L383.627 328.782ZM392.78 319.121C389.77 320.008 386.639 320.463 383.5 320.463V338.463C388.377 338.463 393.22 337.756 397.867 336.387L392.78 319.121ZM383.5 320.463C365.331 320.463 350.537 305.669 350.537 287.5H332.537C332.537 315.61 355.39 338.463 383.5 338.463V320.463ZM350.537 287.5C350.537 269.331 365.331 254.537 383.5 254.537V236.537C355.39 236.537 332.537 259.39 332.537 287.5H350.537ZM383.5 254.537C401.669 254.537 416.463 269.331 416.463 287.5H434.463C434.463 259.39 411.61 236.537 383.5 236.537V254.537ZM416.463 287.5C416.463 290.519 416.041 293.534 415.221 296.442L432.547 301.323C433.807 296.85 434.463 292.194 434.463 287.5H416.463ZM430.248 292.519L425.073 287.344L412.345 300.072L417.52 305.247L430.248 292.519ZM425.073 287.344C413.641 275.912 395.062 275.912 383.629 287.344L396.357 300.072C400.76 295.669 407.942 295.669 412.345 300.072L425.073 287.344ZM383.631 287.342C372.178 298.79 372.18 317.335 383.629 328.784L396.357 316.056C391.936 311.635 391.938 304.489 396.356 300.073L383.631 287.342Z" fill="black" mask="url(#path-16-inside-1)"/>
</g>
<defs>
<filter id="filter0_d" x="104.336" y="211.596" width="359.338" height="159.894" filterUnits="userSpaceOnUse" color-interpolation-filters="sRGB">
<feFlood flood-opacity="0" result="BackgroundImageFix"/>
<feColorMatrix in="SourceAlpha" type="matrix" values="0 0 0 0 0 0 0 0 0 0 0 0 0 0 0 0 0 0 127 0"/>
<feOffset dy="4"/>
<feGaussianBlur stdDeviation="2"/>
<feColorMatrix type="matrix" values="0 0 0 0 0 0 0 0 0 0 0 0 0 0 0 0 0 0 0.25 0"/>
<feBlend mode="normal" in2="BackgroundImageFix" result="effect1_dropShadow"/>
<feBlend mode="normal" in="SourceGraphic" in2="effect1_dropShadow" result="shape"/>
</filter>
<filter id="filter1_d" x="98" y="205" width="110" height="173" filterUnits="userSpaceOnUse" color-interpolation-filters="sRGB">
<feFlood flood-opacity="0" result="BackgroundImageFix"/>
<feColorMatrix in="SourceAlpha" type="matrix" values="0 0 0 0 0 0 0 0 0 0 0 0 0 0 0 0 0 0 127 0"/>
<feOffset dy="4"/>
<feGaussianBlur stdDeviation="2"/>
<feColorMatrix type="matrix" values="0 0 0 0 0 0 0 0 0 0 0 0 0 0 0 0 0 0 0.25 0"/>
<feBlend mode="normal" in2="BackgroundImageFix" result="effect1_dropShadow"/>
<feBlend mode="normal" in="SourceGraphic" in2="effect1_dropShadow" result="shape"/>
</filter>
<filter id="filter2_d" x="215" y="257" width="53" height="63" filterUnits="userSpaceOnUse" color-interpolation-filters="sRGB">
<feFlood flood-opacity="0" result="BackgroundImageFix"/>
<feColorMatrix in="SourceAlpha" type="matrix" values="0 0 0 0 0 0 0 0 0 0 0 0 0 0 0 0 0 0 127 0"/>
<feOffset dy="4"/>
<feGaussianBlur stdDeviation="2"/>
<feColorMatrix type="matrix" values="0 0 0 0 0 0 0 0 0 0 0 0 0 0 0 0 0 0 0.25 0"/>
<feBlend mode="normal" in2="BackgroundImageFix" result="effect1_dropShadow"/>
<feBlend mode="normal" in="SourceGraphic" in2="effect1_dropShadow" result="shape"/>
</filter>
<filter id="filter3_d" x="297" y="205" width="173" height="173" filterUnits="userSpaceOnUse" color-interpolation-filters="sRGB">
<feFlood flood-opacity="0" result="BackgroundImageFix"/>
<feColorMatrix in="SourceAlpha" type="matrix" values="0 0 0 0 0 0 0 0 0 0 0 0 0 0 0 0 0 0 127 0"/>
<feOffset dy="4"/>
<feGaussianBlur stdDeviation="2"/>
<feColorMatrix type="matrix" values="0 0 0 0 0 0 0 0 0 0 0 0 0 0 0 0 0 0 0.25 0"/>
<feBlend mode="normal" in2="BackgroundImageFix" result="effect1_dropShadow"/>
<feBlend mode="normal" in="SourceGraphic" in2="effect1_dropShadow" result="shape"/>
</filter>
<filter id="filter4_d" x="170" y="205" width="142" height="173" filterUnits="userSpaceOnUse" color-interpolation-filters="sRGB">
<feFlood flood-opacity="0" result="BackgroundImageFix"/>
<feColorMatrix in="SourceAlpha" type="matrix" values="0 0 0 0 0 0 0 0 0 0 0 0 0 0 0 0 0 0 127 0"/>
<feOffset dy="4"/>
<feGaussianBlur stdDeviation="2"/>
<feColorMatrix type="matrix" values="0 0 0 0 0 0 0 0 0 0 0 0 0 0 0 0 0 0 0.25 0"/>
<feBlend mode="normal" in2="BackgroundImageFix" result="effect1_dropShadow"/>
<feBlend mode="normal" in="SourceGraphic" in2="effect1_dropShadow" result="shape"/>
</filter>
<filter id="filter5_d" x="324" y="232" width="119" height="119" filterUnits="userSpaceOnUse" color-interpolation-filters="sRGB">
<feFlood flood-opacity="0" result="BackgroundImageFix"/>
<feColorMatrix in="SourceAlpha" type="matrix" values="0 0 0 0 0 0 0 0 0 0 0 0 0 0 0 0 0 0 127 0"/>
<feOffset dy="4"/>
<feGaussianBlur stdDeviation="2"/>
<feColorMatrix type="matrix" values="0 0 0 0 0 0 0 0 0 0 0 0 0 0 0 0 0 0 0.25 0"/>
<feBlend mode="normal" in2="BackgroundImageFix" result="effect1_dropShadow"/>
<feBlend mode="normal" in="SourceGraphic" in2="effect1_dropShadow" result="shape"/>
</filter>
<linearGradient id="paint0_linear" x1="152.958" y1="212.047" x2="152.958" y2="363.49" gradientUnits="userSpaceOnUse">
<stop stop-color="#060606"/>
<stop offset="1" stop-color="#040404" stop-opacity="0"/>
</linearGradient>
<linearGradient id="paint1_linear" x1="241.332" y1="211.596" x2="241.332" y2="363.43" gradientUnits="userSpaceOnUse">
<stop stop-color="#060606"/>
<stop offset="1" stop-color="#404040" stop-opacity="0"/>
</linearGradient>
<linearGradient id="paint2_linear" x1="383.84" y1="211.596" x2="383.84" y2="363.038" gradientUnits="userSpaceOnUse">
<stop stop-color="#060606"/>
<stop offset="1" stop-color="#040404" stop-opacity="0"/>
</linearGradient>
</defs>
</svg>
