<svg width="570" height="567" viewBox="0 0 570 567" fill="none" xmlns="http://www.w3.org/2000/svg">
<path d="M545 53.3333V499.667C545 523.597 525.634 543 501.748 543H56.252C32.3663 543 13 523.597 13 499.667V53.3333C13 29.4027 32.3663 10 56.252 10H501.748C525.634 10 545 29.4027 545 53.3333Z" fill="#8B0E12"/>
<path d="M502.161 0H54.3464C24.3795 0 0 24.3795 0 54.3464V502.161C0 532.128 24.3795 556.507 54.3464 556.507H502.161C532.128 556.507 556.507 532.128 556.507 502.161V54.3464C556.507 24.3795 532.128 0 502.161 0ZM534.769 502.161C534.769 520.142 520.142 534.769 502.161 534.769H54.3464C36.3654 534.769 21.7386 520.142 21.7386 502.161V54.3464C21.7386 36.3654 36.3654 21.7386 54.3464 21.7386H502.161C520.142 21.7386 534.769 36.3654 534.769 54.3464V502.161Z" fill="black"/>
<path d="M509 241C506.797 241 505 239.062 505 236.686V189.314C505 186.938 506.797 185 509 185C511.203 185 513 186.938 513 189.314V236.686C513 239.062 511.203 241 509 241Z" fill="black"/>
<path d="M509 168C506.797 168 505 166.07 505 163.703V125.297C505 122.93 506.797 121 509 121C511.203 121 513 122.93 513 125.297V163.703C513 166.07 511.203 168 509 168Z" fill="black"/>
<path d="M91.4934 513C65.8474 513 45 491.227 45 464.442V89.5577C45 62.773 65.8474 41 91.4934 41H466.891C469.154 41 471 42.9276 471 45.2909C471 47.6543 469.154 49.5818 466.891 49.5818H91.4934C70.3892 49.5818 53.217 67.5165 53.217 89.5577V464.442C53.217 486.484 70.3892 504.418 91.4934 504.418C93.7563 504.418 95.6019 506.346 95.6019 508.709C95.6019 511.072 93.7563 513 91.4934 513Z" fill="black"/>
<path d="M176.905 513H118.095C115.839 513 114 510.979 114 508.5C114 506.021 115.839 504 118.095 504H176.905C179.161 504 181 506.021 181 508.5C181 510.979 179.161 513 176.905 513Z" fill="black"/>
<path d="M372.878 513H212.122C209.852 513 208 510.979 208 508.5C208 506.021 209.852 504 212.122 504H372.878C375.148 504 377 506.021 377 508.5C377 510.979 375.148 513 372.878 513Z" fill="black"/>
<path d="M493.143 503C491.932 503 490.752 502.463 489.928 501.405C488.49 499.575 488.749 496.871 490.526 495.36C499.541 487.737 504.728 476.403 504.728 464.313V271.299C504.728 268.914 506.586 267 508.864 267C511.142 267 513 268.914 513 271.299V464.313C513 479.005 506.715 492.757 495.745 502.043C494.985 502.681 494.064 503 493.143 503Z" fill="black"/>
<g clip-path="url(#clip0)">
<path d="M357.057 255.423L356.84 255.16C360.598 249.715 361.251 242.83 358.574 236.747C355.835 230.49 349.827 226.175 343.144 225.616C336.399 224.912 329.777 227.876 325.771 233.277L291.712 277.252L253.239 247.05L253.201 247.02L253.163 246.991C248.989 243.806 244.018 242.547 239.133 243.058L238.977 243.075L238.821 243.098C233.828 243.849 229.362 246.558 226.36 250.508C226.354 250.516 226.348 250.524 226.342 250.531L179.373 311.527L179.246 311.692L179.129 311.864L178.16 313.291L177.951 313.598L177.776 313.926C173.51 321.913 175.446 332.266 183.14 337.922L183.319 338.053L183.506 338.173C186.422 340.044 190.06 341.623 194.444 341.658C200.688 341.872 206.17 338.633 209.531 334.148L245.135 288.416L284.905 318.228L285.084 318.363L285.271 318.485L286.701 319.421L286.97 319.597L287.254 319.747C295.303 324.014 305.396 322.023 311.164 314.511C311.17 314.504 311.175 314.497 311.181 314.49L357.057 255.423ZM407.589 219.415V339.398C407.589 364.894 400.08 384.338 387.006 397.403C373.932 410.469 354.444 418.002 328.815 418.002H211.447C185.809 418.002 166.317 410.468 153.241 397.403C140.165 384.338 132.656 364.894 132.656 339.398V222.125C132.656 196.551 140.169 177.028 153.251 163.905C166.329 150.786 185.818 143.219 211.447 143.219H331.493C331.395 144.847 331.346 146.476 331.346 148.106C331.346 187.639 363.393 219.599 402.835 219.599C404.453 219.599 406.035 219.532 407.589 219.415Z" fill="#231F20"/>
<path d="M357.057 255.423L356.84 255.16C360.598 249.715 361.251 242.83 358.574 236.747C355.835 230.49 349.827 226.175 343.144 225.616C336.399 224.912 329.777 227.876 325.771 233.277L291.712 277.252L253.239 247.05L253.201 247.02L253.163 246.991C248.989 243.806 244.018 242.547 239.133 243.058L238.977 243.075L238.821 243.098C233.828 243.849 229.362 246.558 226.36 250.508C226.354 250.516 226.348 250.524 226.342 250.531L179.373 311.527L179.246 311.692L179.129 311.864L178.16 313.291L177.951 313.598L177.776 313.926C173.51 321.913 175.446 332.266 183.14 337.922L183.319 338.053L183.506 338.173C186.422 340.044 190.06 341.623 194.444 341.658C200.688 341.872 206.17 338.633 209.531 334.148L245.135 288.416L284.905 318.228L285.084 318.363L285.271 318.485L286.701 319.421L286.97 319.597L287.254 319.747C295.303 324.014 305.396 322.023 311.164 314.511C311.17 314.504 311.175 314.497 311.181 314.49L357.057 255.423ZM407.589 219.415V339.398C407.589 364.894 400.08 384.338 387.006 397.403C373.932 410.469 354.444 418.002 328.815 418.002H211.447C185.809 418.002 166.317 410.468 153.241 397.403C140.165 384.338 132.656 364.894 132.656 339.398V222.125C132.656 196.551 140.169 177.028 153.251 163.905C166.329 150.786 185.818 143.219 211.447 143.219H331.493C331.395 144.847 331.346 146.476 331.346 148.106C331.346 187.639 363.393 219.599 402.835 219.599C404.453 219.599 406.035 219.532 407.589 219.415Z" fill="url(#paint0_linear)"/>
<path d="M357.057 255.423L356.84 255.16C360.598 249.715 361.251 242.83 358.574 236.747C355.835 230.49 349.827 226.175 343.144 225.616C336.399 224.912 329.777 227.876 325.771 233.277L291.712 277.252L253.239 247.05L253.201 247.02L253.163 246.991C248.989 243.806 244.018 242.547 239.133 243.058L238.977 243.075L238.821 243.098C233.828 243.849 229.362 246.558 226.36 250.508C226.354 250.516 226.348 250.524 226.342 250.531L179.373 311.527L179.246 311.692L179.129 311.864L178.16 313.291L177.951 313.598L177.776 313.926C173.51 321.913 175.446 332.266 183.14 337.922L183.319 338.053L183.506 338.173C186.422 340.044 190.06 341.623 194.444 341.658C200.688 341.872 206.17 338.633 209.531 334.148L245.135 288.416L284.905 318.228L285.084 318.363L285.271 318.485L286.701 319.421L286.97 319.597L287.254 319.747C295.303 324.014 305.396 322.023 311.164 314.511C311.17 314.504 311.175 314.497 311.181 314.49L357.057 255.423ZM407.589 219.415V339.398C407.589 364.894 400.08 384.338 387.006 397.403C373.932 410.469 354.444 418.002 328.815 418.002H211.447C185.809 418.002 166.317 410.468 153.241 397.403C140.165 384.338 132.656 364.894 132.656 339.398V222.125C132.656 196.551 140.169 177.028 153.251 163.905C166.329 150.786 185.818 143.219 211.447 143.219H331.493C331.395 144.847 331.346 146.476 331.346 148.106C331.346 187.639 363.393 219.599 402.835 219.599C404.453 219.599 406.035 219.532 407.589 219.415Z" stroke="black" stroke-width="14"/>
<path d="M402.501 111C382.909 111 367 126.909 367 146.5C367 166.091 382.909 182 402.501 182C422.091 182 438 166.091 438 146.5C438 126.909 422.091 111 402.501 111Z" fill="#00D12E"/>
<path fill-rule="evenodd" clip-rule="evenodd" d="M402.754 186.529C421.717 186.751 437.761 176.604 443.602 162.276C444.911 159.066 445.271 155.555 445.468 152.069L445.869 144.979C445.107 124.84 425.506 108.36 401.728 108.081C388.906 107.93 377.416 112.522 369.516 119.942C366.787 122.505 364.838 125.755 363.097 129.078L362.59 130.046C360.765 133.529 359.092 137.161 358.686 141.102C358.562 142.302 358.507 143.52 358.523 144.753L358.576 148.832C358.844 169.335 378.662 186.246 402.754 186.529ZM431.443 149.687C431.622 163.379 418.677 174.363 402.592 174.175C386.504 173.986 373.271 162.695 373.092 149.002L373.039 144.923C372.86 131.234 385.801 120.249 401.89 120.438C417.975 120.627 431.211 131.918 431.39 145.607L431.443 149.687Z" fill="black"/>
</g>
<defs>
<linearGradient id="paint0_linear" x1="270.123" y1="136.219" x2="270.123" y2="425.002" gradientUnits="userSpaceOnUse">
<stop stop-color="#060606"/>
<stop offset="1" stop-color="#040404" stop-opacity="0"/>
</linearGradient>
<clipPath id="clip0">
<rect width="391" height="317" fill="white" transform="translate(89 108)"/>
</clipPath>
</defs>
</svg>
