<svg width="570" height="567" viewBox="0 0 570 567" fill="none" xmlns="http://www.w3.org/2000/svg">
<path d="M545 53.3333V499.667C545 523.597 525.634 543 501.748 543H56.252C32.3663 543 13 523.597 13 499.667V53.3333C13 29.4027 32.3663 10 56.252 10H501.748C525.634 10 545 29.4027 545 53.3333Z" fill="#8B0E12"/>
<path d="M502.161 0H54.3464C24.3795 0 0 24.3795 0 54.3464V502.161C0 532.128 24.3795 556.507 54.3464 556.507H502.161C532.128 556.507 556.507 532.128 556.507 502.161V54.3464C556.507 24.3795 532.128 0 502.161 0ZM534.769 502.161C534.769 520.142 520.142 534.769 502.161 534.769H54.3464C36.3654 534.769 21.7386 520.142 21.7386 502.161V54.3464C21.7386 36.3654 36.3654 21.7386 54.3464 21.7386H502.161C520.142 21.7386 534.769 36.3654 534.769 54.3464V502.161Z" fill="black"/>
<path d="M509 241C506.797 241 505 239.062 505 236.686V189.314C505 186.938 506.797 185 509 185C511.203 185 513 186.938 513 189.314V236.686C513 239.062 511.203 241 509 241Z" fill="black"/>
<path d="M509 168C506.797 168 505 166.07 505 163.703V125.297C505 122.93 506.797 121 509 121C511.203 121 513 122.93 513 125.297V163.703C513 166.07 511.203 168 509 168Z" fill="black"/>
<path d="M91.4934 513C65.8474 513 45 491.227 45 464.442V89.5577C45 62.773 65.8474 41 91.4934 41H466.892C469.154 41 471 42.9276 471 45.2909C471 47.6543 469.154 49.5818 466.892 49.5818H91.4934C70.3892 49.5818 53.217 67.5165 53.217 89.5577V464.442C53.217 486.484 70.3892 504.418 91.4934 504.418C93.7563 504.418 95.6019 506.346 95.6019 508.709C95.6019 511.072 93.7563 513 91.4934 513Z" fill="black"/>
<path d="M176.905 513H118.095C115.839 513 114 510.979 114 508.5C114 506.021 115.839 504 118.095 504H176.905C179.161 504 181 506.021 181 508.5C181 510.979 179.161 513 176.905 513Z" fill="black"/>
<path d="M372.878 513H212.122C209.852 513 208 510.979 208 508.5C208 506.021 209.852 504 212.122 504H372.878C375.148 504 377 506.021 377 508.5C377 510.979 375.148 513 372.878 513Z" fill="black"/>
<path d="M493.143 503C491.932 503 490.752 502.463 489.928 501.405C488.49 499.575 488.749 496.871 490.526 495.36C499.541 487.737 504.728 476.403 504.728 464.313V271.299C504.728 268.914 506.586 267 508.864 267C511.142 267 513 268.914 513 271.299V464.313C513 479.005 506.715 492.757 495.745 502.043C494.985 502.681 494.064 503 493.143 503Z" fill="black"/>
<g clip-path="url(#clip0)">
<path d="M326.938 150.344V387.719C326.938 398.211 322.769 408.274 315.35 415.694C307.931 423.113 297.868 427.281 287.375 427.281H155.5C148.553 427.277 141.729 425.447 135.711 421.976C129.693 418.504 124.694 413.512 121.213 407.5V407.434C117.743 401.444 115.922 394.641 115.938 387.719V150.344C115.938 139.851 120.106 129.788 127.525 122.369C134.945 114.949 145.007 110.781 155.5 110.781H287.375C297.351 110.786 306.956 114.56 314.268 121.346C321.579 128.132 326.058 137.429 326.806 147.377C326.872 148.366 326.938 149.355 326.938 150.344Z" fill="#231F20"/>
<path d="M326.938 150.344V387.719C326.938 398.211 322.769 408.274 315.35 415.694C307.931 423.113 297.868 427.281 287.375 427.281H155.5C148.553 427.277 141.729 425.447 135.711 421.976C129.693 418.504 124.694 413.512 121.213 407.5V407.434C117.743 401.444 115.922 394.641 115.938 387.719V150.344C115.938 139.851 120.106 129.788 127.525 122.369C134.945 114.949 145.007 110.781 155.5 110.781H287.375C297.351 110.786 306.956 114.56 314.268 121.346C321.579 128.132 326.058 137.429 326.806 147.377C326.872 148.366 326.938 149.355 326.938 150.344Z" fill="url(#paint0_linear)"/>
<path d="M326.938 165.18V346.442C316.336 341.846 306.626 335.417 298.255 327.452L251.901 336.09L275.902 295.472C270.693 283.567 267.88 270.751 267.626 257.759C267.372 244.766 269.68 231.85 274.42 219.75C279.16 207.65 286.237 196.602 295.249 187.239C304.26 177.875 315.028 170.38 326.938 165.18Z" fill="black" fill-opacity="0.15"/>
<path d="M450.702 259.801C446.151 285.627 431.529 308.59 410.051 323.638C388.573 338.686 361.998 344.588 336.169 340.046C333.055 339.515 329.973 338.81 326.938 337.936C311.238 333.63 296.852 325.497 285.067 314.265L238.713 322.903L262.715 282.285C255.542 265.898 252.949 247.872 255.213 230.127C257.476 212.383 264.511 195.585 275.569 181.523C286.626 167.461 301.291 156.663 318.001 150.278C334.711 143.893 352.84 142.162 370.456 145.267C396.283 149.819 419.245 164.441 434.294 185.919C449.342 207.397 455.244 233.972 450.702 259.801Z" fill="#8B0E12"/>
<path d="M320.344 222.875V302C320.354 305.494 321.747 308.843 324.218 311.313C326.689 313.784 330.037 315.177 333.531 315.188H399.469C402.963 315.177 406.311 313.784 408.782 311.313C411.253 308.843 412.646 305.494 412.656 302V222.875H320.344Z" fill="black" fill-opacity="0.25"/>
<path d="M399.469 275.625V288.812C399.458 292.307 398.066 295.655 395.595 298.126C393.124 300.597 389.776 301.99 386.281 302H320.344C316.849 301.99 313.501 300.597 311.03 298.126C308.559 295.655 307.167 292.307 307.156 288.812V275.625H399.469Z" fill="#D1D3D4"/>
<path d="M307.156 209.688H399.469V275.625H307.156V209.688Z" fill="#F3F3F3"/>
<path d="M234.625 374.531C238.119 374.542 241.468 375.934 243.938 378.405C246.409 380.876 247.802 384.224 247.812 387.719C247.787 391.208 246.389 394.548 243.921 397.015C241.454 399.483 238.115 400.88 234.625 400.906H208.25C204.756 400.896 201.407 399.503 198.937 397.032C196.466 394.561 195.073 391.213 195.062 387.719C195.088 384.229 196.486 380.89 198.954 378.422C201.421 375.955 204.76 374.557 208.25 374.531H234.625Z" fill="#E6E7E8"/>
<path d="M200.997 379.213C200.997 382.684 200.088 386.094 198.36 389.104L196.184 392.928C195.441 391.292 195.058 389.516 195.063 387.719C195.053 385.988 195.393 384.272 196.062 382.675C196.73 381.077 197.713 379.631 198.953 378.422C199.543 377.819 200.182 377.268 200.865 376.773C200.931 377.565 200.997 378.422 200.997 379.213Z" fill="#E6E7E8"/>
<path d="M200.535 223.996C204.866 228.314 207.565 234.001 208.171 240.087C208.778 246.173 207.256 252.28 203.863 257.369C200.47 262.457 195.418 266.212 189.567 267.992C183.716 269.773 177.429 269.468 171.777 267.132C166.125 264.795 161.459 260.571 158.573 255.178C155.687 249.786 154.761 243.56 155.953 237.561C157.144 231.563 160.379 226.163 165.106 222.282C169.833 218.402 175.759 216.281 181.875 216.281C188.869 216.294 195.575 219.066 200.535 223.996Z" fill="black" fill-opacity="0.15"/>
<path d="M187.348 210.808C191.678 215.127 194.377 220.814 194.984 226.899C195.591 232.985 194.068 239.093 190.676 244.181C187.283 249.27 182.231 253.024 176.38 254.805C170.529 256.585 164.241 256.281 158.59 253.944C152.938 251.608 148.271 247.383 145.386 241.991C142.5 236.599 141.574 230.373 142.765 224.374C143.956 218.375 147.191 212.975 151.918 209.095C156.645 205.214 162.572 203.094 168.688 203.094C175.681 203.106 182.387 205.879 187.348 210.808Z" fill="#F3F3F3"/>
<path d="M168.688 130.562H181.875V143.75H168.688V130.562Z" fill="black"/>
<path d="M195.062 130.562H247.812V143.75H195.062V130.562Z" fill="black"/>
<path fill-rule="evenodd" clip-rule="evenodd" d="M121.478 385.315C121.488 394.511 124.687 403.327 130.374 409.829C136.061 416.332 143.771 419.99 151.814 420.001H262.648L262.424 433.875H151.814C140.554 433.86 129.759 428.739 121.797 419.636C113.835 410.532 109.357 398.189 109.344 385.315V350.629H121.478V385.315Z" fill="black"/>
<path fill-rule="evenodd" clip-rule="evenodd" d="M320.344 387.719C320.333 396.459 316.856 404.839 310.676 411.02C304.495 417.2 296.116 420.677 287.375 420.688H166.92L167.164 433.875H287.375C299.612 433.861 311.344 428.994 319.997 420.341C328.65 411.688 333.517 399.956 333.531 387.719V354.75H320.344V387.719ZM128.028 406.676L126.949 410.797C126.344 411.854 125.459 412.722 124.391 413.306C123.322 413.891 122.113 414.168 120.897 414.107C119.681 414.046 118.506 413.65 117.501 412.962C116.497 412.274 115.702 411.322 115.206 410.21C111.358 403.339 109.339 395.594 109.344 387.719V297.892V277.603V150.344C109.358 138.107 114.225 126.375 122.878 117.722C131.531 109.069 143.263 104.201 155.5 104.188H287.375C295.472 104.207 303.423 106.349 310.435 110.398C317.446 114.447 323.275 120.263 327.34 127.266L315.926 133.859C313.022 128.857 308.858 124.702 303.849 121.81C298.839 118.917 293.159 117.388 287.375 117.375H155.5C146.759 117.385 138.38 120.862 132.199 127.043C126.019 133.223 122.542 141.603 122.531 150.344V387.719C122.535 389.037 122.619 393.651 122.782 394.959L124.093 399.124L125.405 401.641L128.028 406.676ZM192.214 376.226C194.035 373.668 196.439 371.582 199.228 370.14C202.018 368.698 205.11 367.943 208.25 367.938H234.625C239.871 367.938 244.903 370.022 248.612 373.731C252.322 377.441 254.406 382.472 254.406 387.719C254.406 392.965 252.322 397.996 248.612 401.706C244.903 405.416 239.871 407.5 234.625 407.5H208.25C203.004 407.5 197.972 405.416 194.263 401.706C190.553 397.996 188.469 392.965 188.469 387.719C188.494 385.575 188.873 383.449 189.59 381.428L192.214 376.226ZM208.25 381.125H234.625C236.374 381.125 238.051 381.82 239.288 383.056C240.524 384.293 241.219 385.97 241.219 387.719C241.219 389.468 240.524 391.145 239.288 392.381C238.051 393.618 236.374 394.312 234.625 394.312H208.25C206.501 394.312 204.824 393.618 203.588 392.381C202.351 391.145 201.656 389.468 201.656 387.719C201.656 385.97 202.351 384.293 203.588 383.056C204.824 381.82 206.501 381.125 208.25 381.125Z" fill="black"/>
<path d="M439.757 182.126C424.927 160.9 402.81 145.869 377.616 139.894C352.421 133.919 325.909 137.419 303.128 149.726C280.347 162.033 262.887 182.288 254.073 206.635C245.258 230.981 245.706 257.719 255.329 281.758L233.043 319.54C232.4 320.627 232.083 321.877 232.13 323.139C232.176 324.402 232.585 325.624 233.306 326.661C234.046 327.696 235.065 328.5 236.244 328.978C237.423 329.457 238.714 329.591 239.966 329.365L283.023 321.32C297.644 334.427 315.643 343.175 334.982 346.574C341.059 347.619 347.213 348.148 353.378 348.157C372.678 348.151 391.606 342.852 408.103 332.836C424.6 322.819 438.033 308.469 446.941 291.348C455.848 274.227 459.888 254.991 458.621 235.733C457.355 216.475 450.83 197.933 439.757 182.126ZM444.24 258.68C441.34 275.128 434.032 290.482 423.094 303.105C412.156 315.728 397.998 325.146 382.129 330.357C366.26 335.568 349.274 336.375 332.983 332.694C316.691 329.012 301.703 320.979 289.617 309.451C288.38 308.304 286.754 307.667 285.067 307.671C284.67 307.66 284.273 307.682 283.88 307.737L251.769 313.737L268.385 285.648C268.902 284.743 269.206 283.733 269.274 282.693C269.343 281.654 269.174 280.612 268.781 279.648C261.426 263.005 259.2 244.548 262.385 226.634C266.634 202.518 280.29 181.079 300.347 167.031C310.278 160.076 321.482 155.144 333.319 152.519C345.156 149.893 357.395 149.625 369.335 151.729C381.276 153.833 392.686 158.269 402.912 164.782C413.139 171.296 421.982 179.76 428.938 189.691C435.894 199.622 440.825 210.826 443.451 222.663C446.076 234.5 446.344 246.739 444.24 258.68Z" fill="black"/>
<path d="M399.469 203.094H379.687V196.5C379.687 189.505 376.909 182.796 371.962 177.85C367.016 172.904 360.308 170.125 353.312 170.125C346.317 170.125 339.609 172.904 334.663 177.85C329.716 182.796 326.937 189.505 326.937 196.5V203.094H307.156C305.407 203.094 303.73 203.788 302.494 205.025C301.257 206.262 300.562 207.939 300.562 209.688V288.812C300.578 294.054 302.667 299.076 306.374 302.783C310.08 306.489 315.102 308.578 320.344 308.594H386.281C391.523 308.578 396.545 306.489 400.251 302.783C403.958 299.076 406.047 294.054 406.062 288.812V209.688C406.062 207.939 405.368 206.262 404.131 205.025C402.895 203.788 401.218 203.094 399.469 203.094ZM340.125 196.5C340.125 193.002 341.514 189.648 343.988 187.175C346.461 184.702 349.815 183.312 353.312 183.312C356.81 183.312 360.164 184.702 362.637 187.175C365.111 189.648 366.5 193.002 366.5 196.5V203.094H340.125V196.5ZM392.875 288.812C392.875 290.561 392.18 292.238 390.944 293.475C389.707 294.712 388.03 295.406 386.281 295.406H320.344C318.595 295.406 316.918 294.712 315.681 293.475C314.445 292.238 313.75 290.561 313.75 288.812V282.219H392.875V288.812ZM392.875 269.031H313.75V216.281H326.937V229.469H340.125V216.281H366.5V229.469H379.687V216.281H392.875V269.031Z" fill="black"/>
<path d="M196.994 191.838L186.84 201.992C180.005 197.468 171.734 195.644 163.63 196.873C155.526 198.103 148.167 202.298 142.982 208.645C137.796 214.992 135.152 223.039 135.563 231.226C135.974 239.412 139.411 247.154 145.207 252.949C151.002 258.745 158.744 262.182 166.93 262.593C175.117 263.004 183.164 260.36 189.511 255.174C195.858 249.988 200.053 242.63 201.283 234.526C202.512 226.422 200.688 218.151 196.164 211.316L206.318 201.161L196.994 191.838ZM188.469 229.468C188.469 233.381 187.309 237.205 185.135 240.458C182.961 243.711 179.872 246.247 176.257 247.744C172.643 249.241 168.666 249.633 164.828 248.87C160.991 248.106 157.466 246.222 154.7 243.456C151.934 240.689 150.05 237.165 149.286 233.328C148.523 229.49 148.915 225.513 150.412 221.898C151.909 218.284 154.445 215.194 157.698 213.021C160.951 210.847 164.775 209.687 168.687 209.687C171.625 209.699 174.522 210.375 177.16 211.665L157.432 231.394L166.756 240.717L186.491 220.995C187.781 223.634 188.457 226.531 188.469 229.468Z" fill="black"/>
<path d="M214.844 209.688H241.219V222.875H214.844V209.688Z" fill="black"/>
<path d="M214.844 236.062H241.219V249.25H214.844V236.062Z" fill="black"/>
</g>
<defs>
<linearGradient id="paint0_linear" x1="221.438" y1="110.781" x2="221.438" y2="427.281" gradientUnits="userSpaceOnUse">
<stop stop-color="#060606"/>
<stop offset="1" stop-color="#040404" stop-opacity="0"/>
</linearGradient>
<clipPath id="clip0">
<rect width="422" height="422" fill="white" transform="translate(74 91)"/>
</clipPath>
</defs>
</svg>
