<?xml version="1.0" encoding="UTF-8" standalone="no"?>
<svg
   xmlns:dc="http://purl.org/dc/elements/1.1/"
   xmlns:cc="http://creativecommons.org/ns#"
   xmlns:rdf="http://www.w3.org/1999/02/22-rdf-syntax-ns#"
   xmlns:svg="http://www.w3.org/2000/svg"
   xmlns="http://www.w3.org/2000/svg"
   xmlns:sodipodi="http://sodipodi.sourceforge.net/DTD/sodipodi-0.dtd"
   xmlns:inkscape="http://www.inkscape.org/namespaces/inkscape"
   width="53.08"
   height="171.358"
   version="1.1"
   id="svg8"
   sodipodi:docname="etiqueta.svg"
   inkscape:version="0.92.3 (2405546, 2018-03-11)">
  <metadata
     id="metadata14">
    <rdf:RDF>
      <cc:Work
         rdf:about="">
        <dc:format>image/svg+xml</dc:format>
        <dc:type
           rdf:resource="http://purl.org/dc/dcmitype/StillImage" />
        <dc:title></dc:title>
      </cc:Work>
    </rdf:RDF>
  </metadata>
  <defs
     id="defs12">
    <clipPath
       id="clip6">
      <path
         id="path17"
         d="m 254,609 h 91 v 152.44922 h -91 z m 0,0"
         inkscape:connector-curvature="0" />
    </clipPath>
    <clipPath
       id="clip5">
      <path
         id="path14"
         d="m 289,723 h 54 v 38.44922 h -54 z m 0,0"
         inkscape:connector-curvature="0" />
    </clipPath>
  </defs>
  <sodipodi:namedview
     pagecolor="#ffffff"
     bordercolor="#666666"
     borderopacity="1"
     objecttolerance="10"
     gridtolerance="10"
     guidetolerance="10"
     inkscape:pageopacity="0"
     inkscape:pageshadow="2"
     inkscape:window-width="1920"
     inkscape:window-height="1029"
     id="namedview10"
     showgrid="false"
     inkscape:zoom="2.0843397"
     inkscape:cx="-99.826435"
     inkscape:cy="129.03218"
     inkscape:window-x="0"
     inkscape:window-y="27"
     inkscape:window-maximized="1"
     inkscape:current-layer="g6" />
  <g
     class="js-color-text"
     fill="white"
     id="g6"
     style="fill:#ffffff">
    <g
       id="g160">
      <path
         style="fill:#000000"
         d="m 0,0 c 17.693333,0 35.386667,0 53.08,0 0,57.119333 0,114.23867 0,171.358 -17.693333,0 -35.386667,0 -53.08,0 C 0,114.23867 0,57.119333 0,0 Z"
         id="path2"
         inkscape:connector-curvature="0" />
      <g
         id="text18"
         style="font-style:normal;font-weight:normal;font-size:21.33333397px;line-height:1.25;font-family:sans-serif;letter-spacing:0px;word-spacing:0px;fill:#ffffff;fill-opacity:1;stroke:none"
         transform="rotate(-90)"
         aria-label="ADOOKIA">
        <path
           style="font-size:21.33333397px;fill:#ffffff"
           d="m -154.89069,19.855756 c -0.95139,2.579861 -1.90278,5.159722 -2.85417,7.739583 1.55714,-0.492816 6.10124,1.093815 5.34514,-1.009423 -0.83032,-2.243387 -1.66065,-4.486773 -2.49097,-6.73016 z m -1.1875,-2.072917 c 2.90248,-0.975571 3.05685,2.037134 3.91867,4.023111 1.46461,3.842991 2.92922,7.685982 4.39383,11.528973 -2.83889,0.989275 -2.76122,-2.152075 -3.60417,-3.989584 -2.3368,0 -4.67361,0 -7.01041,0 -0.82037,1.884239 -0.82456,4.924402 -3.63542,3.989584 1.97917,-5.184028 3.95833,-10.368056 5.9375,-15.552084 z"
           id="path115"
           inkscape:connector-curvature="0" />
        <path
           style="font-size:21.33333397px;fill:#ffffff"
           d="m -143.40111,19.512006 c 0,4.03125 0,8.0625 0,12.09375 4.37721,0.692351 9.85713,-1.404519 8.72656,-6.817546 0.19176,-5.041388 -4.97393,-5.531249 -8.72656,-5.276204 z m -2.10416,-1.729167 c 4.44375,0.07639 10.5823,-0.837651 12.54426,4.291667 2.42051,5.597076 -1.85233,12.368209 -8.22135,11.260417 -1.9297,-0.228836 -5.37785,1.060785 -4.32291,-2.152689 0,-4.466465 0,-8.93293 0,-13.399395 z"
           id="path117"
           inkscape:connector-curvature="0" />
        <path
           style="font-size:21.33333397px;fill:#ffffff"
           d="m -122.77611,19.209922 c -8.57583,0.17892 -5.16229,17.080021 2.89844,11.757813 3.48391,-3.078006 2.78677,-11.751909 -2.89844,-11.757813 z m 0,-1.708333 c 8.76817,-0.426693 9.86259,14.497386 1.55339,15.998698 -5.96789,1.536935 -10.27305,-5.169051 -8.48633,-10.480469 0.63294,-3.233229 3.6081,-5.678859 6.93294,-5.518229 z"
           id="path119"
           inkscape:connector-curvature="0" />
        <path
           style="font-size:21.33333397px;fill:#ffffff"
           d="m -105.98444,19.209922 c -8.57583,0.17892 -5.16229,17.080021 2.89844,11.757813 3.483906,-3.078006 2.78677,-11.751909 -2.89844,-11.757813 z m 0,-1.708333 c 8.768173,-0.426693 9.862593,14.497386 1.55339,15.998698 -5.96789,1.536935 -10.27305,-5.169051 -8.48633,-10.480469 0.63294,-3.233229 3.6081,-5.678859 6.93294,-5.518229 z"
           id="path121"
           inkscape:connector-curvature="0" />
        <path
           style="font-size:21.33333397px;fill:#ffffff"
           d="m -95.505272,17.782839 c 3.241498,-0.985389 1.808478,2.70374 2.104167,4.66416 -0.689104,3.786568 2.078189,-0.430021 3.3954,-1.289 1.808974,-1.385101 3.099682,-4.076429 5.736456,-3.37516 0.601192,0.640366 -2.895741,2.903558 -3.890082,4.175742 -1.256643,1.521948 -4.782155,3.00624 -1.753716,4.599307 2.250509,2.259012 4.501017,4.518023 6.751526,6.777035 -2.525549,0.690084 -4.029985,-1.080171 -5.55761,-2.79455 -1.560658,-1.565011 -3.121316,-3.130023 -4.681974,-4.695034 0,2.496528 0,4.993056 0,7.489584 -3.241498,0.985389 -1.808478,-2.70374 -2.104167,-4.66416 0,-3.629308 0,-7.258616 0,-10.887924 z"
           id="path123"
           inkscape:connector-curvature="0" />
        <path
           style="font-size:21.33333397px;fill:#ffffff"
           d="m -81.505272,17.782839 c 3.241498,-0.985389 1.808478,2.70374 2.104167,4.66416 0,3.629308 0,7.258616 0,10.887924 -3.241498,0.985389 -1.808478,-2.70374 -2.104167,-4.66416 0,-3.629308 0,-7.258616 0,-10.887924 z"
           id="path125"
           inkscape:connector-curvature="0" />
        <path
           style="font-size:21.33333397px;fill:#ffffff"
           d="m -70.015683,19.855756 c -0.951389,2.579861 -1.902778,5.159722 -2.854167,7.739583 1.557142,-0.492816 6.101238,1.093815 5.345141,-1.009423 -0.830324,-2.243387 -1.660649,-4.486773 -2.490974,-6.73016 z m -1.1875,-2.072917 c 2.902482,-0.975571 3.056841,2.037137 3.918671,4.02311 1.46461,3.842991 2.929219,7.685983 4.393829,11.528974 -2.83889,0.989275 -2.76122,-2.152074 -3.604167,-3.989584 -2.336806,0 -4.673611,0 -7.010417,0 -0.820368,1.88424 -0.82456,4.924402 -3.635416,3.989584 1.979167,-5.184028 3.958333,-10.368056 5.9375,-15.552084 z"
           id="path127"
           inkscape:connector-curvature="0" />
      </g>
      <path
         style="fill:#ffffff;fill-opacity:1;fill-rule:nonzero;stroke:none;stroke-width:0.17478757"
         d="m 17.418678,37.322575 c 3.061835,-1.812364 6.123671,-3.624728 9.185506,-5.437092 -3.515996,-0.571555 -6.329667,1.943234 -9.439475,3.156659 0.08466,0.760144 0.169313,1.520289 0.253969,2.280433 z"
         id="path131"
         inkscape:connector-curvature="0" />
      <g
         id="g135"
         clip-path="url(#clip5)"
         style="clip-rule:nonzero;fill:#cccccc"
         transform="matrix(0.17337533,0,0,0.17621134,-32.753839,-95.665368)">
        <path
           style="fill:#cccccc;fill-opacity:1;fill-rule:nonzero;stroke:none"
           d="m 342.36719,723.85156 c 1.24678,13.22745 -18.57349,14.34479 -26.6067,22.23775 -8.49191,1.89348 -28.69598,24.16173 -26.37377,7.24272 17.66016,-9.82682 35.32031,-19.65365 52.98047,-29.48047 z"
           id="path133"
           inkscape:connector-curvature="0" />
      </g>
      <g
         id="g139"
         clip-path="url(#clip6)"
         style="clip-rule:nonzero;fill:#cccccc"
         transform="matrix(0.17337533,0,0,0.17621134,-32.753839,-95.665368)">
        <path
           style="fill:#cccccc;fill-opacity:1;fill-rule:nonzero;stroke:none"
           d="m 254.21875,761.44922 c 11.64657,-1.3126 26.29045,2.54936 36.18927,-1.78057 17.90436,-31.21507 35.80871,-62.43014 53.71307,-93.64521 -0.57422,-19.0013 -1.14843,-38.00261 -1.72265,-57.00391 -29.39323,50.8099 -58.78646,101.61979 -88.17969,152.42969 z"
           id="path137"
           inkscape:connector-curvature="0" />
      </g>
      <path
         style="fill:#ffffff;fill-opacity:1;fill-rule:nonzero;stroke:none;stroke-width:0.17478757"
         d="m 26.564226,22.304681 c 0.01513,-3.5513 0.03025,-7.102601 0.04538,-10.653901 4.059646,7.146654 8.119292,14.293309 12.178938,21.439963 -2.02143,-0.232613 -4.57638,0.450332 -6.289043,-0.312147 -1.978424,-3.491305 -3.956848,-6.98261 -5.935272,-10.473915 z"
         id="path141"
         inkscape:connector-curvature="0" />
      <path
         style="fill:#999999;fill-opacity:1;fill-rule:nonzero;stroke:none;stroke-width:0.17478757"
         d="m 26.609602,11.65078 c -0.575513,3.051289 2.370917,5.022172 3.621417,7.513306 1.335699,1.972206 2.671398,3.944412 4.007097,5.916618 C 31.695278,20.604063 29.15244,16.127421 26.609602,11.65078 Z"
         id="path143"
         inkscape:connector-curvature="0" />
      <path
         style="fill:#999999;fill-opacity:1;fill-rule:nonzero;stroke:none;stroke-width:0.17478757"
         d="m 26.620438,11.65078 c 0.575513,3.051289 -2.370917,5.022172 -3.621417,7.513306 -1.335699,1.972206 -2.671398,3.944412 -4.007097,5.916618 2.542838,-4.476641 5.085676,-8.953283 7.628514,-13.429924 z"
         id="path145"
         inkscape:connector-curvature="0" />
      <path
         style="fill:#ffffff;fill-opacity:1;fill-rule:nonzero;stroke:none;stroke-width:0.17478757"
         d="m 24.823023,29.750988 c 2.787131,1.590126 1.931444,-5.455981 0.855277,-1.505921 -0.285092,0.501974 -0.570185,1.003947 -0.855277,1.505921 z"
         id="path147"
         inkscape:connector-curvature="0" />
      <path
         style="fill:#999999;fill-opacity:1;fill-rule:nonzero;stroke:none;stroke-width:0.17478757"
         d="m 26.564226,26.685182 c -1.440178,2.640875 2.738856,4.591815 0.855693,1.506069 -0.285231,-0.502023 -0.570462,-1.004046 -0.855693,-1.506069 z"
         id="path149"
         inkscape:connector-curvature="0" />
    </g>
  </g>
</svg>
