<svg width="1440" height="500" viewBox="0 0 1440 500" fill="none" xmlns="http://www.w3.org/2000/svg">
<path d="M1440 0H0V500H1440V0Z" fill="#0A0A0A"/>
<path d="M1318.35 315.213L1297.14 294L1184 407.137L1205.22 428.35L1318.35 315.213Z" fill="url(#paint0_linear)"/>
<path d="M1233.5 428.35L1254.71 449.563L1339.56 364.71L1318.35 343.497L1233.5 428.35Z" fill="url(#paint1_linear)"/>
<path d="M234.35 71.2132L213.137 50L99.9999 163.137L121.213 184.35L234.35 71.2132Z" fill="url(#paint2_linear)"/>
<path d="M149.498 184.35L170.711 205.563L255.564 120.71L234.351 99.497L149.498 184.35Z" fill="url(#paint3_linear)"/>
<defs>
<linearGradient id="paint0_linear" x1="1307.75" y1="304.607" x2="1194.61" y2="417.744" gradientUnits="userSpaceOnUse">
<stop stop-color="#CA0505"/>
<stop offset="1" stop-color="#0A0A0A"/>
</linearGradient>
<linearGradient id="paint1_linear" x1="1244.1" y1="438.956" x2="1328.96" y2="354.104" gradientUnits="userSpaceOnUse">
<stop stop-color="#CA0505"/>
<stop offset="1" stop-color="#0A0A0A"/>
</linearGradient>
<linearGradient id="paint2_linear" x1="223.744" y1="60.6066" x2="110.606" y2="173.744" gradientUnits="userSpaceOnUse">
<stop stop-color="#CA0505"/>
<stop offset="1" stop-color="#0A0A0A"/>
</linearGradient>
<linearGradient id="paint3_linear" x1="160.104" y1="194.956" x2="244.957" y2="110.104" gradientUnits="userSpaceOnUse">
<stop stop-color="#CA0505"/>
<stop offset="1" stop-color="#0A0A0A"/>
</linearGradient>
</defs>
</svg>
