<svg width="1440" height="1000" viewBox="0 0 1440 1000" fill="none" xmlns="http://www.w3.org/2000/svg">
<path d="M1440 0H0V1000H1440V0Z" fill="#111111"/>
<path d="M234.35 121.213L213.137 100L99.9999 213.137L121.213 234.35L234.35 121.213Z" fill="url(#paint0_linear)"/>
<path d="M149.498 234.35L170.711 255.563L255.564 170.71L234.351 149.497L149.498 234.35Z" fill="url(#paint1_linear)"/>
<path d="M1318.35 765.213L1297.14 744L1184 857.137L1205.22 878.35L1318.35 765.213Z" fill="url(#paint2_linear)"/>
<path d="M1233.5 878.35L1254.71 899.563L1339.56 814.71L1318.35 793.497L1233.5 878.35Z" fill="url(#paint3_linear)"/>
<defs>
<linearGradient id="paint0_linear" x1="223.744" y1="110.607" x2="110.606" y2="223.744" gradientUnits="userSpaceOnUse">
<stop stop-color="#CA0505"/>
<stop offset="1" stop-color="#111111"/>
</linearGradient>
<linearGradient id="paint1_linear" x1="160.104" y1="244.956" x2="244.957" y2="160.104" gradientUnits="userSpaceOnUse">
<stop stop-color="#CA0505"/>
<stop offset="1" stop-color="#111111"/>
</linearGradient>
<linearGradient id="paint2_linear" x1="1307.75" y1="754.607" x2="1194.61" y2="867.744" gradientUnits="userSpaceOnUse">
<stop stop-color="#CA0505"/>
<stop offset="1" stop-color="#111111"/>
</linearGradient>
<linearGradient id="paint3_linear" x1="1244.1" y1="888.956" x2="1328.95" y2="804.106" gradientUnits="userSpaceOnUse">
<stop stop-color="#CA0505"/>
<stop offset="1" stop-color="#111111"/>
</linearGradient>
</defs>
</svg>
